<svg width="1363" height="297" viewBox="0 0 1363 297" fill="none" xmlns="http://www.w3.org/2000/svg">
<path d="M0 15C0 6.71573 6.71573 0 15 0H37V297H15C6.71573 297 0 290.284 0 282V15Z" fill="#0BC1A0"/>
<path d="M37 0H1066V297H37V0Z" fill="#F0F0F0"/>
<path d="M105.691 53.7832L98.7305 75H93.123L102.633 49.4062H106.201L105.691 53.7832ZM111.475 75L104.496 53.7832L103.934 49.4062H107.537L117.1 75H111.475ZM111.158 65.4727V69.6035H97.6406V65.4727H111.158ZM124.096 48V75H119.033V48H124.096ZM123.375 64.8223H121.986C121.998 63.498 122.174 62.2793 122.514 61.166C122.854 60.041 123.34 59.0684 123.973 58.248C124.605 57.416 125.361 56.7715 126.24 56.3145C127.131 55.8574 128.115 55.6289 129.193 55.6289C130.131 55.6289 130.98 55.7637 131.742 56.0332C132.516 56.291 133.178 56.7129 133.729 57.2988C134.291 57.873 134.725 58.6289 135.029 59.5664C135.334 60.5039 135.486 61.6406 135.486 62.9766V75H130.389V62.9414C130.389 62.0977 130.266 61.4355 130.02 60.9551C129.785 60.4629 129.439 60.1172 128.982 59.918C128.537 59.707 127.986 59.6016 127.33 59.6016C126.604 59.6016 125.982 59.7363 125.467 60.0059C124.963 60.2754 124.559 60.6504 124.254 61.1309C123.949 61.5996 123.727 62.1504 123.586 62.7832C123.445 63.416 123.375 64.0957 123.375 64.8223ZM144.398 59.918V75H139.318V55.9805H144.082L144.398 59.918ZM143.695 64.8223H142.289C142.289 63.498 142.447 62.2793 142.764 61.166C143.092 60.041 143.566 59.0684 144.188 58.248C144.82 57.416 145.6 56.7715 146.525 56.3145C147.451 55.8574 148.523 55.6289 149.742 55.6289C150.586 55.6289 151.359 55.7578 152.062 56.0156C152.766 56.2617 153.369 56.6543 153.873 57.1934C154.389 57.7207 154.787 58.4121 155.068 59.2676C155.35 60.1113 155.49 61.125 155.49 62.3086V75H150.428V62.8711C150.428 62.0039 150.311 61.3359 150.076 60.8672C149.842 60.3984 149.508 60.0703 149.074 59.8828C148.652 59.6953 148.143 59.6016 147.545 59.6016C146.889 59.6016 146.314 59.7363 145.822 60.0059C145.342 60.2754 144.943 60.6504 144.627 61.1309C144.311 61.5996 144.076 62.1504 143.924 62.7832C143.771 63.416 143.695 64.0957 143.695 64.8223ZM155.016 64.2422L153.205 64.4707C153.205 63.2285 153.357 62.0742 153.662 61.0078C153.979 59.9414 154.441 59.0039 155.051 58.1953C155.672 57.3867 156.439 56.7598 157.354 56.3145C158.268 55.8574 159.322 55.6289 160.518 55.6289C161.432 55.6289 162.264 55.7637 163.014 56.0332C163.764 56.291 164.402 56.707 164.93 57.2812C165.469 57.8438 165.879 58.582 166.16 59.4961C166.453 60.4102 166.6 61.5293 166.6 62.8535V75H161.52V62.8535C161.52 61.9746 161.402 61.3066 161.168 60.8496C160.945 60.3809 160.617 60.0586 160.184 59.8828C159.762 59.6953 159.258 59.6016 158.672 59.6016C158.062 59.6016 157.529 59.7246 157.072 59.9707C156.615 60.2051 156.234 60.5332 155.93 60.9551C155.625 61.377 155.396 61.8691 155.244 62.4316C155.092 62.9824 155.016 63.5859 155.016 64.2422ZM180.785 70.7109V62.2383C180.785 61.6289 180.686 61.1074 180.486 60.6738C180.287 60.2285 179.977 59.8828 179.555 59.6367C179.145 59.3906 178.611 59.2676 177.955 59.2676C177.393 59.2676 176.906 59.3672 176.496 59.5664C176.086 59.7539 175.77 60.0293 175.547 60.3926C175.324 60.7441 175.213 61.1602 175.213 61.6406H170.15C170.15 60.832 170.338 60.0645 170.713 59.3379C171.088 58.6113 171.633 57.9727 172.348 57.4219C173.062 56.8594 173.912 56.4199 174.896 56.1035C175.893 55.7871 177.006 55.6289 178.236 55.6289C179.713 55.6289 181.025 55.875 182.174 56.3672C183.322 56.8594 184.225 57.5977 184.881 58.582C185.549 59.5664 185.883 60.7969 185.883 62.2734V70.4121C185.883 71.4551 185.947 72.3105 186.076 72.9785C186.205 73.6348 186.393 74.209 186.639 74.7012V75H181.523C181.277 74.4844 181.09 73.8398 180.961 73.0664C180.844 72.2812 180.785 71.4961 180.785 70.7109ZM181.453 63.416L181.488 66.2812H178.658C177.99 66.2812 177.41 66.3574 176.918 66.5098C176.426 66.6621 176.021 66.8789 175.705 67.1602C175.389 67.4297 175.154 67.7461 175.002 68.1094C174.861 68.4727 174.791 68.8711 174.791 69.3047C174.791 69.7383 174.891 70.1309 175.09 70.4824C175.289 70.8223 175.576 71.0918 175.951 71.291C176.326 71.4785 176.766 71.5723 177.27 71.5723C178.031 71.5723 178.693 71.4199 179.256 71.1152C179.818 70.8105 180.252 70.4355 180.557 69.9902C180.873 69.5449 181.037 69.123 181.049 68.7246L182.385 70.8691C182.197 71.3496 181.939 71.8477 181.611 72.3633C181.295 72.8789 180.891 73.3652 180.398 73.8223C179.906 74.2676 179.314 74.6367 178.623 74.9297C177.932 75.2109 177.111 75.3516 176.162 75.3516C174.955 75.3516 173.859 75.1113 172.875 74.6309C171.902 74.1387 171.129 73.4648 170.555 72.6094C169.992 71.7422 169.711 70.7578 169.711 69.6562C169.711 68.6602 169.898 67.7754 170.273 67.002C170.648 66.2285 171.199 65.5781 171.926 65.0508C172.664 64.5117 173.584 64.1074 174.686 63.8379C175.787 63.5566 177.064 63.416 178.518 63.416H181.453ZM201.018 70.8516V48H206.115V75H201.527L201.018 70.8516ZM188.994 65.7188V65.3496C188.994 63.8965 189.158 62.5781 189.486 61.3945C189.814 60.1992 190.295 59.1738 190.928 58.3184C191.561 57.4629 192.34 56.8008 193.266 56.332C194.191 55.8633 195.246 55.6289 196.43 55.6289C197.543 55.6289 198.516 55.8633 199.348 56.332C200.191 56.8008 200.906 57.4688 201.492 58.3359C202.09 59.1914 202.57 60.2051 202.934 61.377C203.297 62.5371 203.561 63.8086 203.725 65.1914V66C203.561 67.3242 203.297 68.5547 202.934 69.6914C202.57 70.8281 202.09 71.8242 201.492 72.6797C200.906 73.5234 200.191 74.1797 199.348 74.6484C198.504 75.1172 197.52 75.3516 196.395 75.3516C195.211 75.3516 194.156 75.1113 193.23 74.6309C192.316 74.1504 191.543 73.4766 190.91 72.6094C190.289 71.7422 189.814 70.7227 189.486 69.5508C189.158 68.3789 188.994 67.1016 188.994 65.7188ZM194.057 65.3496V65.7188C194.057 66.5039 194.115 67.2363 194.232 67.916C194.361 68.5957 194.566 69.1992 194.848 69.7266C195.141 70.2422 195.516 70.6465 195.973 70.9395C196.441 71.2207 197.01 71.3613 197.678 71.3613C198.545 71.3613 199.26 71.168 199.822 70.7812C200.385 70.3828 200.812 69.8379 201.105 69.1465C201.41 68.4551 201.586 67.6582 201.633 66.7559V64.4531C201.598 63.7148 201.492 63.0527 201.316 62.4668C201.152 61.8691 200.906 61.3594 200.578 60.9375C200.262 60.5156 199.863 60.1875 199.383 59.9531C198.914 59.7188 198.357 59.6016 197.713 59.6016C197.057 59.6016 196.494 59.7539 196.025 60.0586C195.557 60.3516 195.176 60.7559 194.883 61.2715C194.602 61.7871 194.391 62.3965 194.25 63.0996C194.121 63.791 194.057 64.541 194.057 65.3496ZM224.959 49.4062V75H219.703V49.4062H224.959ZM229.582 48H234.645V70.6406L234.135 75H229.582V48ZM246.686 65.2969V65.666C246.686 67.084 246.533 68.3848 246.229 69.5684C245.936 70.752 245.479 71.7773 244.857 72.6445C244.236 73.5 243.463 74.168 242.537 74.6484C241.623 75.1172 240.545 75.3516 239.303 75.3516C238.143 75.3516 237.135 75.1172 236.279 74.6484C235.436 74.1797 234.727 73.5176 234.152 72.6621C233.578 71.8066 233.115 70.8047 232.764 69.6562C232.412 68.5078 232.148 67.2539 231.973 65.8945V65.0859C232.148 63.7266 232.412 62.4727 232.764 61.3242C233.115 60.1758 233.578 59.1738 234.152 58.3184C234.727 57.4629 235.436 56.8008 236.279 56.332C237.123 55.8633 238.119 55.6289 239.268 55.6289C240.521 55.6289 241.611 55.8691 242.537 56.3496C243.475 56.8184 244.248 57.4863 244.857 58.3535C245.479 59.209 245.936 60.2285 246.229 61.4121C246.533 62.584 246.686 63.8789 246.686 65.2969ZM241.623 65.666V65.2969C241.623 64.5234 241.564 63.7969 241.447 63.1172C241.342 62.4258 241.154 61.8223 240.885 61.3066C240.615 60.7793 240.246 60.3633 239.777 60.0586C239.32 59.7539 238.729 59.6016 238.002 59.6016C237.311 59.6016 236.725 59.7188 236.244 59.9531C235.764 60.1875 235.365 60.5156 235.049 60.9375C234.744 61.3594 234.516 61.8633 234.363 62.4492C234.211 63.0234 234.117 63.6562 234.082 64.3477V66.6504C234.117 67.5762 234.27 68.3965 234.539 69.1113C234.82 69.8145 235.242 70.3711 235.805 70.7812C236.379 71.1797 237.123 71.3789 238.037 71.3789C238.752 71.3789 239.344 71.2383 239.812 70.957C240.281 70.6758 240.645 70.2773 240.902 69.7617C241.172 69.2461 241.359 68.6426 241.465 67.9512C241.57 67.248 241.623 66.4863 241.623 65.666ZM254.895 60.1289V75H249.832V55.9805H254.596L254.895 60.1289ZM260.625 55.8574L260.537 60.5508C260.291 60.5156 259.992 60.4863 259.641 60.4629C259.301 60.4277 258.99 60.4102 258.709 60.4102C257.994 60.4102 257.373 60.5039 256.846 60.6914C256.33 60.8672 255.896 61.1309 255.545 61.4824C255.205 61.834 254.947 62.2617 254.771 62.7656C254.607 63.2695 254.514 63.8438 254.49 64.4883L253.471 64.1719C253.471 62.9414 253.594 61.8105 253.84 60.7793C254.086 59.7363 254.443 58.8281 254.912 58.0547C255.393 57.2812 255.979 56.6836 256.67 56.2617C257.361 55.8398 258.152 55.6289 259.043 55.6289C259.324 55.6289 259.611 55.6523 259.904 55.6992C260.197 55.7344 260.438 55.7871 260.625 55.8574ZM272.684 70.7109V62.2383C272.684 61.6289 272.584 61.1074 272.385 60.6738C272.186 60.2285 271.875 59.8828 271.453 59.6367C271.043 59.3906 270.51 59.2676 269.854 59.2676C269.291 59.2676 268.805 59.3672 268.395 59.5664C267.984 59.7539 267.668 60.0293 267.445 60.3926C267.223 60.7441 267.111 61.1602 267.111 61.6406H262.049C262.049 60.832 262.236 60.0645 262.611 59.3379C262.986 58.6113 263.531 57.9727 264.246 57.4219C264.961 56.8594 265.811 56.4199 266.795 56.1035C267.791 55.7871 268.904 55.6289 270.135 55.6289C271.611 55.6289 272.924 55.875 274.072 56.3672C275.221 56.8594 276.123 57.5977 276.779 58.582C277.447 59.5664 277.781 60.7969 277.781 62.2734V70.4121C277.781 71.4551 277.846 72.3105 277.975 72.9785C278.104 73.6348 278.291 74.209 278.537 74.7012V75H273.422C273.176 74.4844 272.988 73.8398 272.859 73.0664C272.742 72.2812 272.684 71.4961 272.684 70.7109ZM273.352 63.416L273.387 66.2812H270.557C269.889 66.2812 269.309 66.3574 268.816 66.5098C268.324 66.6621 267.92 66.8789 267.604 67.1602C267.287 67.4297 267.053 67.7461 266.9 68.1094C266.76 68.4727 266.689 68.8711 266.689 69.3047C266.689 69.7383 266.789 70.1309 266.988 70.4824C267.188 70.8223 267.475 71.0918 267.85 71.291C268.225 71.4785 268.664 71.5723 269.168 71.5723C269.93 71.5723 270.592 71.4199 271.154 71.1152C271.717 70.8105 272.15 70.4355 272.455 69.9902C272.771 69.5449 272.936 69.123 272.947 68.7246L274.283 70.8691C274.096 71.3496 273.838 71.8477 273.51 72.3633C273.193 72.8789 272.789 73.3652 272.297 73.8223C271.805 74.2676 271.213 74.6367 270.521 74.9297C269.83 75.2109 269.01 75.3516 268.061 75.3516C266.854 75.3516 265.758 75.1113 264.773 74.6309C263.801 74.1387 263.027 73.4648 262.453 72.6094C261.891 71.7422 261.609 70.7578 261.609 69.6562C261.609 68.6602 261.797 67.7754 262.172 67.002C262.547 66.2285 263.098 65.5781 263.824 65.0508C264.562 64.5117 265.482 64.1074 266.584 63.8379C267.686 63.5566 268.963 63.416 270.416 63.416H273.352ZM286.623 48V75H281.561V48H286.623ZM285.902 64.8223H284.514C284.525 63.498 284.701 62.2793 285.041 61.166C285.381 60.041 285.867 59.0684 286.5 58.248C287.133 57.416 287.889 56.7715 288.768 56.3145C289.658 55.8574 290.643 55.6289 291.721 55.6289C292.658 55.6289 293.508 55.7637 294.27 56.0332C295.043 56.291 295.705 56.7129 296.256 57.2988C296.818 57.873 297.252 58.6289 297.557 59.5664C297.861 60.5039 298.014 61.6406 298.014 62.9766V75H292.916V62.9414C292.916 62.0977 292.793 61.4355 292.547 60.9551C292.312 60.4629 291.967 60.1172 291.51 59.918C291.064 59.707 290.514 59.6016 289.857 59.6016C289.131 59.6016 288.51 59.7363 287.994 60.0059C287.49 60.2754 287.086 60.6504 286.781 61.1309C286.477 61.5996 286.254 62.1504 286.113 62.7832C285.973 63.416 285.902 64.0957 285.902 64.8223ZM307.207 55.9805V75H302.127V55.9805H307.207ZM301.811 51.0234C301.811 50.2852 302.068 49.6758 302.584 49.1953C303.1 48.7148 303.791 48.4746 304.658 48.4746C305.514 48.4746 306.199 48.7148 306.715 49.1953C307.242 49.6758 307.506 50.2852 307.506 51.0234C307.506 51.7617 307.242 52.3711 306.715 52.8516C306.199 53.332 305.514 53.5723 304.658 53.5723C303.791 53.5723 303.1 53.332 302.584 52.8516C302.068 52.3711 301.811 51.7617 301.811 51.0234ZM316.453 59.918V75H311.373V55.9805H316.137L316.453 59.918ZM315.75 64.8223H314.344C314.344 63.498 314.502 62.2793 314.818 61.166C315.146 60.041 315.621 59.0684 316.242 58.248C316.875 57.416 317.654 56.7715 318.58 56.3145C319.506 55.8574 320.578 55.6289 321.797 55.6289C322.641 55.6289 323.414 55.7578 324.117 56.0156C324.82 56.2617 325.424 56.6543 325.928 57.1934C326.443 57.7207 326.842 58.4121 327.123 59.2676C327.404 60.1113 327.545 61.125 327.545 62.3086V75H322.482V62.8711C322.482 62.0039 322.365 61.3359 322.131 60.8672C321.896 60.3984 321.562 60.0703 321.129 59.8828C320.707 59.6953 320.197 59.6016 319.6 59.6016C318.943 59.6016 318.369 59.7363 317.877 60.0059C317.396 60.2754 316.998 60.6504 316.682 61.1309C316.365 61.5996 316.131 62.1504 315.979 62.7832C315.826 63.416 315.75 64.0957 315.75 64.8223ZM327.07 64.2422L325.26 64.4707C325.26 63.2285 325.412 62.0742 325.717 61.0078C326.033 59.9414 326.496 59.0039 327.105 58.1953C327.727 57.3867 328.494 56.7598 329.408 56.3145C330.322 55.8574 331.377 55.6289 332.572 55.6289C333.486 55.6289 334.318 55.7637 335.068 56.0332C335.818 56.291 336.457 56.707 336.984 57.2812C337.523 57.8438 337.934 58.582 338.215 59.4961C338.508 60.4102 338.654 61.5293 338.654 62.8535V75H333.574V62.8535C333.574 61.9746 333.457 61.3066 333.223 60.8496C333 60.3809 332.672 60.0586 332.238 59.8828C331.816 59.6953 331.312 59.6016 330.727 59.6016C330.117 59.6016 329.584 59.7246 329.127 59.9707C328.67 60.2051 328.289 60.5332 327.984 60.9551C327.68 61.377 327.451 61.8691 327.299 62.4316C327.146 62.9824 327.07 63.5859 327.07 64.2422Z" fill="#888888"/>
<path d="M115.312 100.188V140H105.715V100.188H115.312ZM127.289 100.188V107.598H94.0117V100.188H127.289ZM139.949 98V140H130.734V98H139.949ZM138.855 124.195L136.695 124.25C136.695 122.172 136.951 120.258 137.461 118.508C137.971 116.758 138.701 115.236 139.648 113.941C140.596 112.647 141.736 111.645 143.066 110.934C144.397 110.223 145.874 109.867 147.496 109.867C148.954 109.867 150.285 110.077 151.488 110.496C152.71 110.915 153.758 111.59 154.633 112.52C155.526 113.449 156.21 114.661 156.684 116.156C157.176 117.651 157.422 119.474 157.422 121.625V140H148.152V121.57C148.152 120.367 147.979 119.438 147.633 118.781C147.305 118.107 146.831 117.642 146.211 117.387C145.591 117.113 144.835 116.977 143.941 116.977C142.866 116.977 141.991 117.159 141.316 117.523C140.642 117.888 140.122 118.398 139.758 119.055C139.411 119.693 139.174 120.449 139.047 121.324C138.919 122.199 138.855 123.156 138.855 124.195ZM176.863 140.547C174.457 140.547 172.306 140.173 170.41 139.426C168.514 138.66 166.91 137.612 165.598 136.281C164.303 134.951 163.31 133.419 162.617 131.688C161.943 129.956 161.605 128.124 161.605 126.191V125.152C161.605 122.983 161.906 120.978 162.508 119.137C163.109 117.277 164.003 115.655 165.188 114.27C166.372 112.884 167.858 111.809 169.645 111.043C171.431 110.259 173.509 109.867 175.879 109.867C177.975 109.867 179.853 110.204 181.512 110.879C183.171 111.553 184.574 112.52 185.723 113.777C186.889 115.035 187.773 116.557 188.375 118.344C188.995 120.13 189.305 122.135 189.305 124.359V128.105H165.133V122.336H180.309V121.625C180.327 120.641 180.154 119.802 179.789 119.109C179.443 118.417 178.932 117.888 178.258 117.523C177.583 117.159 176.763 116.977 175.797 116.977C174.794 116.977 173.965 117.195 173.309 117.633C172.671 118.07 172.169 118.672 171.805 119.438C171.458 120.185 171.212 121.051 171.066 122.035C170.921 123.02 170.848 124.059 170.848 125.152V126.191C170.848 127.285 170.993 128.279 171.285 129.172C171.595 130.065 172.033 130.831 172.598 131.469C173.181 132.089 173.874 132.572 174.676 132.918C175.496 133.264 176.426 133.438 177.465 133.438C178.723 133.438 179.962 133.201 181.184 132.727C182.405 132.253 183.453 131.469 184.328 130.375L188.512 135.352C187.91 136.208 187.053 137.038 185.941 137.84C184.848 138.642 183.535 139.298 182.004 139.809C180.473 140.301 178.759 140.547 176.863 140.547ZM225.07 100.188V140H215.473V100.188H225.07ZM237.047 100.188V107.598H203.77V100.188H237.047ZM248.176 117.742V140H238.961V110.414H247.574L248.176 117.742ZM256.926 110.195L256.762 118.754C256.397 118.717 255.905 118.672 255.285 118.617C254.665 118.562 254.146 118.535 253.727 118.535C252.651 118.535 251.721 118.663 250.938 118.918C250.172 119.155 249.534 119.52 249.023 120.012C248.531 120.486 248.167 121.087 247.93 121.816C247.711 122.546 247.611 123.393 247.629 124.359L245.961 123.266C245.961 121.279 246.152 119.474 246.535 117.852C246.936 116.211 247.501 114.798 248.23 113.613C248.96 112.41 249.844 111.49 250.883 110.852C251.922 110.195 253.089 109.867 254.383 109.867C254.839 109.867 255.285 109.895 255.723 109.949C256.178 110.004 256.579 110.086 256.926 110.195ZM274.645 132.562V120.367C274.645 119.529 274.526 118.809 274.289 118.207C274.052 117.605 273.678 117.141 273.168 116.812C272.658 116.466 271.974 116.293 271.117 116.293C270.424 116.293 269.832 116.411 269.34 116.648C268.848 116.885 268.474 117.241 268.219 117.715C267.964 118.189 267.836 118.79 267.836 119.52H258.621C258.621 118.152 258.922 116.885 259.523 115.719C260.143 114.534 261.018 113.504 262.148 112.629C263.297 111.754 264.664 111.079 266.25 110.605C267.854 110.113 269.641 109.867 271.609 109.867C273.961 109.867 276.057 110.259 277.898 111.043C279.758 111.827 281.225 113.003 282.301 114.57C283.376 116.12 283.914 118.07 283.914 120.422V132.535C283.914 134.467 284.023 135.935 284.242 136.938C284.461 137.922 284.771 138.788 285.172 139.535V140H275.93C275.492 139.089 275.164 137.977 274.945 136.664C274.745 135.333 274.645 133.966 274.645 132.562ZM275.766 121.926L275.82 126.848H271.746C270.889 126.848 270.16 126.966 269.559 127.203C268.975 127.44 268.501 127.768 268.137 128.188C267.79 128.589 267.535 129.044 267.371 129.555C267.225 130.065 267.152 130.603 267.152 131.168C267.152 131.715 267.28 132.207 267.535 132.645C267.809 133.064 268.173 133.392 268.629 133.629C269.085 133.866 269.595 133.984 270.16 133.984C271.181 133.984 272.047 133.793 272.758 133.41C273.487 133.009 274.043 132.526 274.426 131.961C274.809 131.396 275 130.867 275 130.375L277.023 134.148C276.659 134.878 276.24 135.616 275.766 136.363C275.31 137.111 274.736 137.803 274.043 138.441C273.368 139.061 272.539 139.572 271.555 139.973C270.57 140.355 269.376 140.547 267.973 140.547C266.15 140.547 264.473 140.173 262.941 139.426C261.428 138.678 260.216 137.639 259.305 136.309C258.393 134.96 257.938 133.41 257.938 131.66C257.938 130.129 258.211 128.762 258.758 127.559C259.323 126.355 260.171 125.335 261.301 124.496C262.431 123.658 263.871 123.02 265.621 122.582C267.371 122.145 269.431 121.926 271.801 121.926H275.766ZM301.523 133.438C302.38 133.438 303.109 133.283 303.711 132.973C304.331 132.645 304.796 132.189 305.105 131.605C305.434 131.004 305.589 130.284 305.57 129.445H314.238C314.257 131.669 313.71 133.62 312.598 135.297C311.504 136.956 310.009 138.25 308.113 139.18C306.236 140.091 304.112 140.547 301.742 140.547C299.427 140.547 297.404 140.173 295.672 139.426C293.94 138.66 292.491 137.603 291.324 136.254C290.176 134.887 289.31 133.292 288.727 131.469C288.161 129.646 287.879 127.668 287.879 125.535V124.906C287.879 122.773 288.161 120.796 288.727 118.973C289.31 117.132 290.176 115.536 291.324 114.188C292.491 112.82 293.931 111.763 295.645 111.016C297.376 110.25 299.391 109.867 301.688 109.867C304.148 109.867 306.318 110.332 308.195 111.262C310.091 112.191 311.577 113.54 312.652 115.309C313.728 117.077 314.257 119.219 314.238 121.734H305.57C305.589 120.841 305.452 120.039 305.16 119.328C304.868 118.617 304.413 118.052 303.793 117.633C303.191 117.195 302.417 116.977 301.469 116.977C300.521 116.977 299.755 117.186 299.172 117.605C298.589 118.025 298.142 118.608 297.832 119.355C297.54 120.085 297.34 120.923 297.23 121.871C297.139 122.819 297.094 123.831 297.094 124.906V125.535C297.094 126.629 297.139 127.659 297.23 128.625C297.34 129.573 297.549 130.411 297.859 131.141C298.169 131.852 298.616 132.417 299.199 132.836C299.783 133.237 300.557 133.438 301.523 133.438ZM332.504 140.547C330.098 140.547 327.947 140.173 326.051 139.426C324.155 138.66 322.551 137.612 321.238 136.281C319.944 134.951 318.951 133.419 318.258 131.688C317.583 129.956 317.246 128.124 317.246 126.191V125.152C317.246 122.983 317.547 120.978 318.148 119.137C318.75 117.277 319.643 115.655 320.828 114.27C322.013 112.884 323.499 111.809 325.285 111.043C327.072 110.259 329.15 109.867 331.52 109.867C333.616 109.867 335.493 110.204 337.152 110.879C338.811 111.553 340.215 112.52 341.363 113.777C342.53 115.035 343.414 116.557 344.016 118.344C344.635 120.13 344.945 122.135 344.945 124.359V128.105H320.773V122.336H335.949V121.625C335.967 120.641 335.794 119.802 335.43 119.109C335.083 118.417 334.573 117.888 333.898 117.523C333.224 117.159 332.404 116.977 331.438 116.977C330.435 116.977 329.605 117.195 328.949 117.633C328.311 118.07 327.81 118.672 327.445 119.438C327.099 120.185 326.853 121.051 326.707 122.035C326.561 123.02 326.488 124.059 326.488 125.152V126.191C326.488 127.285 326.634 128.279 326.926 129.172C327.236 130.065 327.673 130.831 328.238 131.469C328.822 132.089 329.514 132.572 330.316 132.918C331.137 133.264 332.066 133.438 333.105 133.438C334.363 133.438 335.603 133.201 336.824 132.727C338.046 132.253 339.094 131.469 339.969 130.375L344.152 135.352C343.551 136.208 342.694 137.038 341.582 137.84C340.488 138.642 339.176 139.298 337.645 139.809C336.113 140.301 334.4 140.547 332.504 140.547Z" fill="black"/>
<rect x="93" y="178" width="917" height="77" rx="10" fill="#D3D3D3"/>
<rect x="111" y="196" width="148" height="41" rx="3" fill="#424242"/>
<rect x="111" y="196" width="148" height="41" rx="3" stroke="#424242" stroke-width="4"/>
<path d="M149.703 210.203H154.739C155.724 210.203 156.579 210.35 157.306 210.643C158.032 210.936 158.592 211.369 158.984 211.943C159.383 212.518 159.582 213.227 159.582 214.07C159.582 214.803 159.468 215.415 159.239 215.907C159.011 216.399 158.691 216.807 158.281 217.129C157.877 217.445 157.405 217.706 156.866 217.911L155.855 218.482H151.628L151.61 216.101H154.739C155.132 216.101 155.457 216.03 155.715 215.89C155.973 215.749 156.166 215.55 156.295 215.292C156.43 215.028 156.497 214.715 156.497 214.352C156.497 213.982 156.43 213.666 156.295 213.402C156.16 213.139 155.961 212.937 155.697 212.796C155.439 212.655 155.12 212.585 154.739 212.585H152.788V223H149.703V210.203ZM156.708 223L153.878 217.34L157.147 217.322L160.013 222.868V223H156.708ZM165.91 223.176C165.137 223.176 164.445 223.056 163.836 222.815C163.227 222.569 162.711 222.232 162.289 221.805C161.873 221.377 161.554 220.885 161.331 220.328C161.114 219.771 161.006 219.183 161.006 218.562V218.228C161.006 217.53 161.103 216.886 161.296 216.294C161.489 215.696 161.776 215.175 162.157 214.729C162.538 214.284 163.016 213.938 163.59 213.692C164.164 213.44 164.832 213.314 165.594 213.314C166.268 213.314 166.871 213.423 167.404 213.64C167.938 213.856 168.389 214.167 168.758 214.571C169.133 214.976 169.417 215.465 169.61 216.039C169.81 216.613 169.909 217.258 169.909 217.973V219.177H162.14V217.322H167.018V217.094C167.023 216.777 166.968 216.508 166.851 216.285C166.739 216.062 166.575 215.893 166.358 215.775C166.142 215.658 165.878 215.6 165.567 215.6C165.245 215.6 164.979 215.67 164.768 215.811C164.562 215.951 164.401 216.145 164.284 216.391C164.173 216.631 164.094 216.909 164.047 217.226C164 217.542 163.977 217.876 163.977 218.228V218.562C163.977 218.913 164.023 219.232 164.117 219.52C164.217 219.807 164.357 220.053 164.539 220.258C164.727 220.457 164.949 220.612 165.207 220.724C165.471 220.835 165.77 220.891 166.104 220.891C166.508 220.891 166.906 220.814 167.299 220.662C167.691 220.51 168.028 220.258 168.31 219.906L169.654 221.506C169.461 221.781 169.186 222.048 168.828 222.306C168.477 222.563 168.055 222.774 167.562 222.938C167.07 223.097 166.52 223.176 165.91 223.176ZM176.053 220.609V216.689C176.053 216.42 176.015 216.188 175.938 215.995C175.862 215.802 175.742 215.652 175.578 215.547C175.414 215.436 175.194 215.38 174.919 215.38C174.696 215.38 174.506 215.418 174.348 215.494C174.189 215.57 174.069 215.685 173.987 215.837C173.905 215.989 173.864 216.183 173.864 216.417H170.902C170.902 215.978 170.999 215.57 171.192 215.195C171.392 214.814 171.673 214.483 172.036 214.202C172.405 213.921 172.845 213.704 173.354 213.552C173.87 213.394 174.444 213.314 175.077 213.314C175.833 213.314 176.507 213.44 177.099 213.692C177.696 213.944 178.168 214.322 178.514 214.826C178.859 215.324 179.032 215.951 179.032 216.707V220.601C179.032 221.222 179.067 221.693 179.138 222.016C179.208 222.332 179.308 222.61 179.437 222.851V223H176.466C176.325 222.707 176.22 222.35 176.149 221.928C176.085 221.5 176.053 221.061 176.053 220.609ZM176.413 217.19L176.431 218.772H175.121C174.846 218.772 174.611 218.811 174.418 218.887C174.23 218.963 174.078 219.068 173.961 219.203C173.85 219.332 173.768 219.479 173.715 219.643C173.668 219.807 173.645 219.979 173.645 220.161C173.645 220.337 173.686 220.495 173.768 220.636C173.855 220.771 173.973 220.876 174.119 220.952C174.266 221.028 174.43 221.066 174.611 221.066C174.939 221.066 175.218 221.005 175.446 220.882C175.681 220.753 175.859 220.598 175.982 220.416C176.105 220.234 176.167 220.064 176.167 219.906L176.817 221.119C176.7 221.354 176.565 221.591 176.413 221.831C176.267 222.071 176.082 222.294 175.859 222.499C175.643 222.698 175.376 222.862 175.06 222.991C174.743 223.114 174.359 223.176 173.908 223.176C173.322 223.176 172.783 223.056 172.291 222.815C171.805 222.575 171.415 222.241 171.122 221.813C170.829 221.38 170.683 220.882 170.683 220.319C170.683 219.827 170.771 219.388 170.946 219.001C171.128 218.614 171.4 218.286 171.764 218.017C172.127 217.747 172.59 217.542 173.152 217.401C173.715 217.261 174.377 217.19 175.139 217.19H176.413ZM184.692 220.891C184.968 220.891 185.202 220.841 185.396 220.741C185.595 220.636 185.744 220.489 185.844 220.302C185.949 220.108 185.999 219.877 185.993 219.607H188.779C188.785 220.322 188.609 220.949 188.252 221.488C187.9 222.021 187.42 222.438 186.811 222.736C186.207 223.029 185.524 223.176 184.763 223.176C184.019 223.176 183.368 223.056 182.812 222.815C182.255 222.569 181.789 222.229 181.414 221.796C181.045 221.356 180.767 220.844 180.579 220.258C180.397 219.672 180.307 219.036 180.307 218.351V218.148C180.307 217.463 180.397 216.827 180.579 216.241C180.767 215.649 181.045 215.137 181.414 214.703C181.789 214.264 182.252 213.924 182.803 213.684C183.359 213.438 184.007 213.314 184.745 213.314C185.536 213.314 186.233 213.464 186.837 213.763C187.446 214.062 187.924 214.495 188.27 215.063C188.615 215.632 188.785 216.32 188.779 217.129H185.993C185.999 216.842 185.955 216.584 185.861 216.355C185.768 216.127 185.621 215.945 185.422 215.811C185.229 215.67 184.979 215.6 184.675 215.6C184.37 215.6 184.124 215.667 183.937 215.802C183.749 215.937 183.605 216.124 183.506 216.364C183.412 216.599 183.348 216.868 183.312 217.173C183.283 217.478 183.269 217.803 183.269 218.148V218.351C183.269 218.702 183.283 219.033 183.312 219.344C183.348 219.648 183.415 219.918 183.515 220.152C183.614 220.381 183.758 220.562 183.945 220.697C184.133 220.826 184.382 220.891 184.692 220.891ZM195.055 213.49V215.547H189.324V213.49H195.055ZM190.528 211.126H193.49V219.897C193.49 220.149 193.52 220.346 193.578 220.486C193.637 220.621 193.736 220.718 193.877 220.776C194.023 220.829 194.217 220.855 194.457 220.855C194.627 220.855 194.768 220.853 194.879 220.847C194.99 220.835 195.096 220.82 195.195 220.803V222.921C194.943 223.003 194.68 223.064 194.404 223.105C194.129 223.152 193.836 223.176 193.525 223.176C192.893 223.176 192.351 223.076 191.899 222.877C191.454 222.678 191.114 222.364 190.88 221.937C190.646 221.509 190.528 220.952 190.528 220.267V211.126ZM205.944 218.983V210.203H209.021V218.983C209.021 219.839 208.824 220.58 208.432 221.207C208.045 221.834 207.518 222.32 206.85 222.666C206.188 223.006 205.443 223.176 204.617 223.176C203.762 223.176 203 223.032 202.332 222.745C201.67 222.458 201.148 222.016 200.768 221.418C200.393 220.82 200.205 220.059 200.205 219.133H203.299C203.299 219.566 203.349 219.906 203.448 220.152C203.548 220.393 203.694 220.562 203.888 220.662C204.087 220.756 204.33 220.803 204.617 220.803C204.898 220.803 205.136 220.732 205.329 220.592C205.528 220.445 205.681 220.237 205.786 219.968C205.892 219.692 205.944 219.364 205.944 218.983ZM217.572 219.599C217.572 219.399 217.543 219.221 217.484 219.062C217.426 218.898 217.317 218.746 217.159 218.605C217.001 218.465 216.772 218.324 216.474 218.184C216.181 218.037 215.794 217.885 215.313 217.727C214.751 217.539 214.209 217.328 213.688 217.094C213.166 216.854 212.7 216.575 212.29 216.259C211.88 215.937 211.555 215.562 211.314 215.134C211.074 214.7 210.954 214.196 210.954 213.622C210.954 213.071 211.077 212.576 211.323 212.137C211.569 211.691 211.912 211.313 212.352 211.003C212.797 210.687 213.318 210.446 213.916 210.282C214.514 210.112 215.167 210.027 215.876 210.027C216.813 210.027 217.64 210.191 218.354 210.52C219.075 210.842 219.638 211.302 220.042 211.899C220.452 212.491 220.657 213.191 220.657 214H217.59C217.59 213.678 217.522 213.394 217.388 213.147C217.259 212.901 217.062 212.708 216.799 212.567C216.535 212.427 216.204 212.356 215.806 212.356C215.419 212.356 215.094 212.415 214.83 212.532C214.566 212.649 214.367 212.808 214.232 213.007C214.098 213.2 214.03 213.414 214.03 213.648C214.03 213.842 214.083 214.018 214.188 214.176C214.3 214.328 214.455 214.472 214.654 214.606C214.859 214.741 215.105 214.87 215.393 214.993C215.686 215.116 216.014 215.236 216.377 215.354C217.057 215.57 217.66 215.813 218.188 216.083C218.721 216.347 219.169 216.648 219.532 216.988C219.901 217.322 220.18 217.703 220.367 218.131C220.561 218.559 220.657 219.042 220.657 219.581C220.657 220.155 220.546 220.665 220.323 221.11C220.101 221.556 219.781 221.934 219.365 222.244C218.949 222.549 218.451 222.78 217.871 222.938C217.291 223.097 216.644 223.176 215.929 223.176C215.272 223.176 214.625 223.094 213.986 222.93C213.354 222.76 212.779 222.502 212.264 222.156C211.748 221.805 211.335 221.356 211.024 220.812C210.72 220.261 210.567 219.607 210.567 218.852H213.661C213.661 219.227 213.711 219.543 213.811 219.801C213.91 220.059 214.057 220.267 214.25 220.425C214.443 220.577 214.681 220.688 214.962 220.759C215.243 220.823 215.565 220.855 215.929 220.855C216.321 220.855 216.638 220.8 216.878 220.688C217.118 220.571 217.294 220.419 217.405 220.231C217.517 220.038 217.572 219.827 217.572 219.599Z" fill="white"/>
<rect x="279" y="196" width="130" height="41" rx="3" fill="#424242"/>
<rect x="279" y="196" width="130" height="41" rx="3" stroke="#424242" stroke-width="4"/>
<path d="M310.883 220.627V223H304.062V220.627H310.883ZM305.161 210.203V223H302.076V210.203H305.161ZM310.004 215.283V217.577H304.062V215.283H310.004ZM310.909 210.203V212.585H304.062V210.203H310.909ZM314.521 213.49L315.857 216.109L317.237 213.49H320.313L317.817 218.122L320.445 223H317.343L315.857 220.188L314.381 223H311.278L313.906 218.122L311.419 213.49H314.521ZM324.277 215.318V226.656H321.315V213.49H324.075L324.277 215.318ZM330.113 218.131V218.315C330.113 219.007 330.034 219.648 329.876 220.24C329.718 220.832 329.483 221.348 329.173 221.787C328.862 222.227 328.476 222.569 328.013 222.815C327.556 223.056 327.025 223.176 326.422 223.176C325.854 223.176 325.364 223.05 324.954 222.798C324.544 222.546 324.201 222.197 323.926 221.752C323.65 221.307 323.428 220.797 323.258 220.223C323.088 219.648 322.953 219.042 322.854 218.403V218.166C322.953 217.48 323.088 216.845 323.258 216.259C323.428 215.667 323.65 215.151 323.926 214.712C324.201 214.272 324.541 213.93 324.945 213.684C325.355 213.438 325.845 213.314 326.413 213.314C327.017 213.314 327.547 213.429 328.004 213.657C328.467 213.886 328.854 214.214 329.164 214.642C329.48 215.063 329.718 215.57 329.876 216.162C330.034 216.754 330.113 217.41 330.113 218.131ZM327.151 218.315V218.131C327.151 217.762 327.125 217.425 327.072 217.12C327.02 216.81 326.935 216.54 326.817 216.312C326.706 216.083 326.557 215.907 326.369 215.784C326.182 215.661 325.95 215.6 325.675 215.6C325.358 215.6 325.092 215.649 324.875 215.749C324.664 215.843 324.494 215.989 324.365 216.188C324.242 216.382 324.154 216.625 324.102 216.918C324.055 217.205 324.034 217.542 324.04 217.929V218.649C324.028 219.095 324.072 219.487 324.172 219.827C324.271 220.161 324.444 220.422 324.69 220.609C324.937 220.797 325.271 220.891 325.692 220.891C325.974 220.891 326.208 220.826 326.396 220.697C326.583 220.562 326.732 220.378 326.844 220.144C326.955 219.903 327.034 219.628 327.081 219.317C327.128 219.007 327.151 218.673 327.151 218.315ZM334.42 215.846V223H331.458V213.49H334.227L334.42 215.846ZM337.232 213.42L337.18 216.171C337.062 216.159 336.904 216.145 336.705 216.127C336.506 216.109 336.339 216.101 336.204 216.101C335.858 216.101 335.56 216.142 335.308 216.224C335.062 216.3 334.856 216.417 334.692 216.575C334.534 216.728 334.417 216.921 334.341 217.155C334.271 217.39 334.238 217.662 334.244 217.973L333.708 217.621C333.708 216.982 333.77 216.402 333.893 215.881C334.021 215.354 334.203 214.899 334.438 214.519C334.672 214.132 334.956 213.836 335.29 213.631C335.624 213.42 335.999 213.314 336.415 213.314C336.562 213.314 336.705 213.323 336.846 213.341C336.992 213.358 337.121 213.385 337.232 213.42ZM342.682 223.176C341.908 223.176 341.217 223.056 340.607 222.815C339.998 222.569 339.482 222.232 339.061 221.805C338.645 221.377 338.325 220.885 338.103 220.328C337.886 219.771 337.777 219.183 337.777 218.562V218.228C337.777 217.53 337.874 216.886 338.067 216.294C338.261 215.696 338.548 215.175 338.929 214.729C339.31 214.284 339.787 213.938 340.361 213.692C340.936 213.44 341.604 213.314 342.365 213.314C343.039 213.314 343.643 213.423 344.176 213.64C344.709 213.856 345.16 214.167 345.529 214.571C345.904 214.976 346.188 215.465 346.382 216.039C346.581 216.613 346.681 217.258 346.681 217.973V219.177H338.911V217.322H343.789V217.094C343.795 216.777 343.739 216.508 343.622 216.285C343.511 216.062 343.347 215.893 343.13 215.775C342.913 215.658 342.649 215.6 342.339 215.6C342.017 215.6 341.75 215.67 341.539 215.811C341.334 215.951 341.173 216.145 341.056 216.391C340.944 216.631 340.865 216.909 340.818 217.226C340.771 217.542 340.748 217.876 340.748 218.228V218.562C340.748 218.913 340.795 219.232 340.889 219.52C340.988 219.807 341.129 220.053 341.311 220.258C341.498 220.457 341.721 220.612 341.979 220.724C342.242 220.835 342.541 220.891 342.875 220.891C343.279 220.891 343.678 220.814 344.07 220.662C344.463 220.51 344.8 220.258 345.081 219.906L346.426 221.506C346.232 221.781 345.957 222.048 345.6 222.306C345.248 222.563 344.826 222.774 344.334 222.938C343.842 223.097 343.291 223.176 342.682 223.176ZM352.868 220.328C352.868 220.164 352.812 220.023 352.701 219.906C352.596 219.783 352.408 219.672 352.139 219.572C351.869 219.467 351.491 219.361 351.005 219.256C350.542 219.156 350.105 219.024 349.695 218.86C349.291 218.696 348.937 218.497 348.632 218.263C348.327 218.028 348.087 217.75 347.911 217.428C347.741 217.105 347.656 216.736 347.656 216.32C347.656 215.916 347.741 215.535 347.911 215.178C348.087 214.814 348.342 214.495 348.676 214.22C349.016 213.938 349.429 213.719 349.915 213.561C350.401 213.396 350.955 213.314 351.576 213.314C352.432 213.314 353.17 213.446 353.791 213.71C354.412 213.968 354.89 214.331 355.224 214.8C355.563 215.263 355.733 215.799 355.733 216.408H352.771C352.771 216.168 352.73 215.963 352.648 215.793C352.572 215.623 352.446 215.494 352.271 215.406C352.095 215.312 351.86 215.266 351.567 215.266C351.362 215.266 351.175 215.304 351.005 215.38C350.841 215.456 350.709 215.562 350.609 215.696C350.51 215.831 350.46 215.989 350.46 216.171C350.46 216.3 350.489 216.417 350.548 216.522C350.612 216.622 350.709 216.716 350.838 216.804C350.967 216.886 351.131 216.962 351.33 217.032C351.529 217.097 351.77 217.155 352.051 217.208C352.689 217.325 353.287 217.492 353.844 217.709C354.4 217.926 354.852 218.233 355.197 218.632C355.549 219.03 355.725 219.566 355.725 220.24C355.725 220.662 355.628 221.052 355.435 221.409C355.241 221.761 354.963 222.071 354.6 222.341C354.236 222.604 353.8 222.81 353.29 222.956C352.78 223.103 352.206 223.176 351.567 223.176C350.659 223.176 349.892 223.015 349.265 222.692C348.638 222.364 348.163 221.954 347.841 221.462C347.524 220.964 347.366 220.46 347.366 219.95H350.126C350.138 220.243 350.208 220.483 350.337 220.671C350.472 220.858 350.65 220.996 350.873 221.084C351.096 221.172 351.354 221.216 351.646 221.216C351.916 221.216 352.139 221.178 352.314 221.102C352.496 221.025 352.634 220.923 352.728 220.794C352.821 220.659 352.868 220.504 352.868 220.328ZM362.097 220.328C362.097 220.164 362.041 220.023 361.93 219.906C361.824 219.783 361.637 219.672 361.367 219.572C361.098 219.467 360.72 219.361 360.233 219.256C359.771 219.156 359.334 219.024 358.924 218.86C358.52 218.696 358.165 218.497 357.86 218.263C357.556 218.028 357.315 217.75 357.14 217.428C356.97 217.105 356.885 216.736 356.885 216.32C356.885 215.916 356.97 215.535 357.14 215.178C357.315 214.814 357.57 214.495 357.904 214.22C358.244 213.938 358.657 213.719 359.144 213.561C359.63 213.396 360.184 213.314 360.805 213.314C361.66 213.314 362.398 213.446 363.02 213.71C363.641 213.968 364.118 214.331 364.452 214.8C364.792 215.263 364.962 215.799 364.962 216.408H362C362 216.168 361.959 215.963 361.877 215.793C361.801 215.623 361.675 215.494 361.499 215.406C361.323 215.312 361.089 215.266 360.796 215.266C360.591 215.266 360.403 215.304 360.233 215.38C360.069 215.456 359.938 215.562 359.838 215.696C359.738 215.831 359.688 215.989 359.688 216.171C359.688 216.3 359.718 216.417 359.776 216.522C359.841 216.622 359.938 216.716 360.066 216.804C360.195 216.886 360.359 216.962 360.559 217.032C360.758 217.097 360.998 217.155 361.279 217.208C361.918 217.325 362.516 217.492 363.072 217.709C363.629 217.926 364.08 218.233 364.426 218.632C364.777 219.03 364.953 219.566 364.953 220.24C364.953 220.662 364.856 221.052 364.663 221.409C364.47 221.761 364.191 222.071 363.828 222.341C363.465 222.604 363.028 222.81 362.519 222.956C362.009 223.103 361.435 223.176 360.796 223.176C359.888 223.176 359.12 223.015 358.493 222.692C357.866 222.364 357.392 221.954 357.069 221.462C356.753 220.964 356.595 220.46 356.595 219.95H359.354C359.366 220.243 359.437 220.483 359.565 220.671C359.7 220.858 359.879 220.996 360.102 221.084C360.324 221.172 360.582 221.216 360.875 221.216C361.145 221.216 361.367 221.178 361.543 221.102C361.725 221.025 361.862 220.923 361.956 220.794C362.05 220.659 362.097 220.504 362.097 220.328ZM371.571 218.983V210.203H374.647V218.983C374.647 219.839 374.451 220.58 374.059 221.207C373.672 221.834 373.145 222.32 372.477 222.666C371.814 223.006 371.07 223.176 370.244 223.176C369.389 223.176 368.627 223.032 367.959 222.745C367.297 222.458 366.775 222.016 366.395 221.418C366.02 220.82 365.832 220.059 365.832 219.133H368.926C368.926 219.566 368.976 219.906 369.075 220.152C369.175 220.393 369.321 220.562 369.515 220.662C369.714 220.756 369.957 220.803 370.244 220.803C370.525 220.803 370.763 220.732 370.956 220.592C371.155 220.445 371.308 220.237 371.413 219.968C371.519 219.692 371.571 219.364 371.571 218.983ZM383.199 219.599C383.199 219.399 383.17 219.221 383.111 219.062C383.053 218.898 382.944 218.746 382.786 218.605C382.628 218.465 382.399 218.324 382.101 218.184C381.808 218.037 381.421 217.885 380.94 217.727C380.378 217.539 379.836 217.328 379.314 217.094C378.793 216.854 378.327 216.575 377.917 216.259C377.507 215.937 377.182 215.562 376.941 215.134C376.701 214.7 376.581 214.196 376.581 213.622C376.581 213.071 376.704 212.576 376.95 212.137C377.196 211.691 377.539 211.313 377.979 211.003C378.424 210.687 378.945 210.446 379.543 210.282C380.141 210.112 380.794 210.027 381.503 210.027C382.44 210.027 383.267 210.191 383.981 210.52C384.702 210.842 385.265 211.302 385.669 211.899C386.079 212.491 386.284 213.191 386.284 214H383.217C383.217 213.678 383.149 213.394 383.015 213.147C382.886 212.901 382.689 212.708 382.426 212.567C382.162 212.427 381.831 212.356 381.433 212.356C381.046 212.356 380.721 212.415 380.457 212.532C380.193 212.649 379.994 212.808 379.859 213.007C379.725 213.2 379.657 213.414 379.657 213.648C379.657 213.842 379.71 214.018 379.815 214.176C379.927 214.328 380.082 214.472 380.281 214.606C380.486 214.741 380.732 214.87 381.02 214.993C381.312 215.116 381.641 215.236 382.004 215.354C382.684 215.57 383.287 215.813 383.814 216.083C384.348 216.347 384.796 216.648 385.159 216.988C385.528 217.322 385.807 217.703 385.994 218.131C386.188 218.559 386.284 219.042 386.284 219.581C386.284 220.155 386.173 220.665 385.95 221.11C385.728 221.556 385.408 221.934 384.992 222.244C384.576 222.549 384.078 222.78 383.498 222.938C382.918 223.097 382.271 223.176 381.556 223.176C380.899 223.176 380.252 223.094 379.613 222.93C378.98 222.76 378.406 222.502 377.891 222.156C377.375 221.805 376.962 221.356 376.651 220.812C376.347 220.261 376.194 219.607 376.194 218.852H379.288C379.288 219.227 379.338 219.543 379.438 219.801C379.537 220.059 379.684 220.267 379.877 220.425C380.07 220.577 380.308 220.688 380.589 220.759C380.87 220.823 381.192 220.855 381.556 220.855C381.948 220.855 382.265 220.8 382.505 220.688C382.745 220.571 382.921 220.419 383.032 220.231C383.144 220.038 383.199 219.827 383.199 219.599Z" fill="white"/>
<rect x="429" y="196" width="109" height="41" rx="3" fill="#424242"/>
<rect x="429" y="196" width="109" height="41" rx="3" stroke="#424242" stroke-width="4"/>
<path d="M463.118 210.203V223H460.042L455.516 215.037V223H452.431V210.203H455.516L460.042 218.166V210.203H463.118ZM464.56 218.342V218.157C464.56 217.46 464.659 216.818 464.858 216.232C465.058 215.641 465.351 215.128 465.737 214.694C466.124 214.261 466.602 213.924 467.17 213.684C467.738 213.438 468.395 213.314 469.139 213.314C469.889 213.314 470.548 213.438 471.116 213.684C471.69 213.924 472.171 214.261 472.558 214.694C472.944 215.128 473.237 215.641 473.437 216.232C473.636 216.818 473.735 217.46 473.735 218.157V218.342C473.735 219.033 473.636 219.675 473.437 220.267C473.237 220.853 472.944 221.365 472.558 221.805C472.171 222.238 471.693 222.575 471.125 222.815C470.557 223.056 469.9 223.176 469.156 223.176C468.412 223.176 467.753 223.056 467.179 222.815C466.604 222.575 466.124 222.238 465.737 221.805C465.351 221.365 465.058 220.853 464.858 220.267C464.659 219.675 464.56 219.033 464.56 218.342ZM467.521 218.157V218.342C467.521 218.699 467.548 219.033 467.601 219.344C467.653 219.654 467.741 219.927 467.864 220.161C467.987 220.39 468.154 220.568 468.365 220.697C468.576 220.826 468.84 220.891 469.156 220.891C469.467 220.891 469.725 220.826 469.93 220.697C470.141 220.568 470.308 220.39 470.431 220.161C470.554 219.927 470.642 219.654 470.694 219.344C470.747 219.033 470.773 218.699 470.773 218.342V218.157C470.773 217.812 470.747 217.486 470.694 217.182C470.642 216.871 470.554 216.599 470.431 216.364C470.308 216.124 470.141 215.937 469.93 215.802C469.719 215.667 469.455 215.6 469.139 215.6C468.828 215.6 468.567 215.667 468.356 215.802C468.151 215.937 467.987 216.124 467.864 216.364C467.741 216.599 467.653 216.871 467.601 217.182C467.548 217.486 467.521 217.812 467.521 218.157ZM480.521 220.82V209.5H483.5V223H480.828L480.521 220.82ZM474.685 218.359V218.175C474.685 217.454 474.764 216.798 474.922 216.206C475.08 215.608 475.314 215.096 475.625 214.668C475.936 214.234 476.322 213.9 476.785 213.666C477.248 213.432 477.781 213.314 478.385 213.314C478.924 213.314 479.396 213.44 479.8 213.692C480.204 213.938 480.55 214.284 480.837 214.729C481.124 215.175 481.358 215.696 481.54 216.294C481.722 216.886 481.859 217.524 481.953 218.21V218.43C481.859 219.074 481.722 219.684 481.54 220.258C481.358 220.826 481.124 221.33 480.837 221.77C480.55 222.209 480.201 222.555 479.791 222.807C479.387 223.053 478.912 223.176 478.367 223.176C477.764 223.176 477.23 223.056 476.768 222.815C476.311 222.575 475.927 222.238 475.616 221.805C475.312 221.371 475.08 220.861 474.922 220.275C474.764 219.689 474.685 219.051 474.685 218.359ZM477.646 218.175V218.359C477.646 218.717 477.67 219.048 477.717 219.353C477.764 219.657 477.843 219.927 477.954 220.161C478.071 220.39 478.224 220.568 478.411 220.697C478.604 220.826 478.842 220.891 479.123 220.891C479.504 220.891 479.817 220.8 480.063 220.618C480.315 220.437 480.5 220.179 480.617 219.845C480.74 219.511 480.793 219.118 480.775 218.667V217.973C480.787 217.586 480.761 217.246 480.696 216.953C480.632 216.654 480.529 216.405 480.389 216.206C480.254 216.007 480.081 215.857 479.87 215.758C479.665 215.652 479.422 215.6 479.141 215.6C478.865 215.6 478.631 215.664 478.438 215.793C478.25 215.922 478.098 216.104 477.98 216.338C477.863 216.566 477.778 216.839 477.726 217.155C477.673 217.466 477.646 217.806 477.646 218.175ZM489.784 223.176C489.011 223.176 488.319 223.056 487.71 222.815C487.101 222.569 486.585 222.232 486.163 221.805C485.747 221.377 485.428 220.885 485.205 220.328C484.988 219.771 484.88 219.183 484.88 218.562V218.228C484.88 217.53 484.977 216.886 485.17 216.294C485.363 215.696 485.65 215.175 486.031 214.729C486.412 214.284 486.89 213.938 487.464 213.692C488.038 213.44 488.706 213.314 489.468 213.314C490.142 213.314 490.745 213.423 491.278 213.64C491.812 213.856 492.263 214.167 492.632 214.571C493.007 214.976 493.291 215.465 493.484 216.039C493.684 216.613 493.783 217.258 493.783 217.973V219.177H486.014V217.322H490.892V217.094C490.897 216.777 490.842 216.508 490.725 216.285C490.613 216.062 490.449 215.893 490.232 215.775C490.016 215.658 489.752 215.6 489.441 215.6C489.119 215.6 488.853 215.67 488.642 215.811C488.437 215.951 488.275 216.145 488.158 216.391C488.047 216.631 487.968 216.909 487.921 217.226C487.874 217.542 487.851 217.876 487.851 218.228V218.562C487.851 218.913 487.897 219.232 487.991 219.52C488.091 219.807 488.231 220.053 488.413 220.258C488.601 220.457 488.823 220.612 489.081 220.724C489.345 220.835 489.644 220.891 489.978 220.891C490.382 220.891 490.78 220.814 491.173 220.662C491.565 220.51 491.902 220.258 492.184 219.906L493.528 221.506C493.335 221.781 493.06 222.048 492.702 222.306C492.351 222.563 491.929 222.774 491.437 222.938C490.944 223.097 490.394 223.176 489.784 223.176ZM500.217 218.983V210.203H503.293V218.983C503.293 219.839 503.097 220.58 502.704 221.207C502.317 221.834 501.79 222.32 501.122 222.666C500.46 223.006 499.716 223.176 498.89 223.176C498.034 223.176 497.272 223.032 496.604 222.745C495.942 222.458 495.421 222.016 495.04 221.418C494.665 220.82 494.478 220.059 494.478 219.133H497.571C497.571 219.566 497.621 219.906 497.721 220.152C497.82 220.393 497.967 220.562 498.16 220.662C498.359 220.756 498.603 220.803 498.89 220.803C499.171 220.803 499.408 220.732 499.602 220.592C499.801 220.445 499.953 220.237 500.059 219.968C500.164 219.692 500.217 219.364 500.217 218.983ZM511.845 219.599C511.845 219.399 511.815 219.221 511.757 219.062C511.698 218.898 511.59 218.746 511.432 218.605C511.273 218.465 511.045 218.324 510.746 218.184C510.453 218.037 510.066 217.885 509.586 217.727C509.023 217.539 508.481 217.328 507.96 217.094C507.438 216.854 506.973 216.575 506.562 216.259C506.152 215.937 505.827 215.562 505.587 215.134C505.347 214.7 505.227 214.196 505.227 213.622C505.227 213.071 505.35 212.576 505.596 212.137C505.842 211.691 506.185 211.313 506.624 211.003C507.069 210.687 507.591 210.446 508.188 210.282C508.786 210.112 509.439 210.027 510.148 210.027C511.086 210.027 511.912 210.191 512.627 210.52C513.348 210.842 513.91 211.302 514.314 211.899C514.725 212.491 514.93 213.191 514.93 214H511.862C511.862 213.678 511.795 213.394 511.66 213.147C511.531 212.901 511.335 212.708 511.071 212.567C510.808 212.427 510.477 212.356 510.078 212.356C509.691 212.356 509.366 212.415 509.103 212.532C508.839 212.649 508.64 212.808 508.505 213.007C508.37 213.2 508.303 213.414 508.303 213.648C508.303 213.842 508.355 214.018 508.461 214.176C508.572 214.328 508.728 214.472 508.927 214.606C509.132 214.741 509.378 214.87 509.665 214.993C509.958 215.116 510.286 215.236 510.649 215.354C511.329 215.57 511.933 215.813 512.46 216.083C512.993 216.347 513.441 216.648 513.805 216.988C514.174 217.322 514.452 217.703 514.64 218.131C514.833 218.559 514.93 219.042 514.93 219.581C514.93 220.155 514.818 220.665 514.596 221.11C514.373 221.556 514.054 221.934 513.638 222.244C513.222 222.549 512.724 222.78 512.144 222.938C511.563 223.097 510.916 223.176 510.201 223.176C509.545 223.176 508.897 223.094 508.259 222.93C507.626 222.76 507.052 222.502 506.536 222.156C506.021 221.805 505.607 221.356 505.297 220.812C504.992 220.261 504.84 219.607 504.84 218.852H507.934C507.934 219.227 507.983 219.543 508.083 219.801C508.183 220.059 508.329 220.267 508.522 220.425C508.716 220.577 508.953 220.688 509.234 220.759C509.516 220.823 509.838 220.855 510.201 220.855C510.594 220.855 510.91 220.8 511.15 220.688C511.391 220.571 511.566 220.419 511.678 220.231C511.789 220.038 511.845 219.827 511.845 219.599Z" fill="white"/>
<rect x="558" y="196" width="124" height="41" rx="3" fill="#424242"/>
<rect x="558" y="196" width="124" height="41" rx="3" stroke="#424242" stroke-width="4"/>
<path d="M582.585 210.203H585.099L587.955 219.106L590.812 210.203H593.325L588.975 223H586.936L582.585 210.203ZM581.056 210.203H583.657L584.141 220.012V223H581.056V210.203ZM592.253 210.203H594.863V223H591.77V220.012L592.253 210.203ZM596.331 218.342V218.157C596.331 217.46 596.431 216.818 596.63 216.232C596.829 215.641 597.122 215.128 597.509 214.694C597.896 214.261 598.373 213.924 598.941 213.684C599.51 213.438 600.166 213.314 600.91 213.314C601.66 213.314 602.319 213.438 602.888 213.684C603.462 213.924 603.942 214.261 604.329 214.694C604.716 215.128 605.009 215.641 605.208 216.232C605.407 216.818 605.507 217.46 605.507 218.157V218.342C605.507 219.033 605.407 219.675 605.208 220.267C605.009 220.853 604.716 221.365 604.329 221.805C603.942 222.238 603.465 222.575 602.896 222.815C602.328 223.056 601.672 223.176 600.928 223.176C600.184 223.176 599.524 223.056 598.95 222.815C598.376 222.575 597.896 222.238 597.509 221.805C597.122 221.365 596.829 220.853 596.63 220.267C596.431 219.675 596.331 219.033 596.331 218.342ZM599.293 218.157V218.342C599.293 218.699 599.319 219.033 599.372 219.344C599.425 219.654 599.513 219.927 599.636 220.161C599.759 220.39 599.926 220.568 600.137 220.697C600.348 220.826 600.611 220.891 600.928 220.891C601.238 220.891 601.496 220.826 601.701 220.697C601.912 220.568 602.079 220.39 602.202 220.161C602.325 219.927 602.413 219.654 602.466 219.344C602.519 219.033 602.545 218.699 602.545 218.342V218.157C602.545 217.812 602.519 217.486 602.466 217.182C602.413 216.871 602.325 216.599 602.202 216.364C602.079 216.124 601.912 215.937 601.701 215.802C601.49 215.667 601.227 215.6 600.91 215.6C600.6 215.6 600.339 215.667 600.128 215.802C599.923 215.937 599.759 216.124 599.636 216.364C599.513 216.599 599.425 216.871 599.372 217.182C599.319 217.486 599.293 217.812 599.293 218.157ZM609.734 215.521V223H606.772V213.49H609.55L609.734 215.521ZM609.383 217.92L608.688 217.938C608.688 217.211 608.776 216.563 608.952 215.995C609.128 215.421 609.377 214.935 609.699 214.536C610.021 214.138 610.405 213.836 610.851 213.631C611.302 213.42 611.803 213.314 612.354 213.314C612.793 213.314 613.194 213.379 613.558 213.508C613.927 213.637 614.243 213.845 614.507 214.132C614.776 214.419 614.981 214.8 615.122 215.274C615.269 215.743 615.342 216.323 615.342 217.015V223H612.362V217.006C612.362 216.625 612.31 216.335 612.204 216.136C612.099 215.931 611.946 215.79 611.747 215.714C611.548 215.638 611.305 215.6 611.018 215.6C610.713 215.6 610.455 215.658 610.244 215.775C610.033 215.893 609.863 216.057 609.734 216.268C609.611 216.473 609.521 216.716 609.462 216.997C609.409 217.278 609.383 217.586 609.383 217.92ZM622.962 213.49H625.651V222.631C625.651 223.51 625.449 224.254 625.045 224.863C624.641 225.479 624.075 225.944 623.349 226.261C622.628 226.583 621.784 226.744 620.817 226.744C620.39 226.744 619.953 226.688 619.508 226.577C619.062 226.472 618.646 226.313 618.26 226.103C617.873 225.892 617.548 225.631 617.284 225.32L618.523 223.58C618.764 223.85 619.065 224.078 619.429 224.266C619.792 224.459 620.22 224.556 620.712 224.556C621.14 224.556 621.497 224.479 621.784 224.327C622.077 224.175 622.3 223.952 622.452 223.659C622.604 223.372 622.681 223.023 622.681 222.613V215.74L622.962 213.49ZM616.643 218.359V218.175C616.643 217.454 616.73 216.798 616.906 216.206C617.088 215.608 617.346 215.096 617.68 214.668C618.02 214.234 618.43 213.9 618.91 213.666C619.391 213.432 619.933 213.314 620.536 213.314C621.187 213.314 621.72 213.44 622.136 213.692C622.558 213.938 622.895 214.284 623.146 214.729C623.404 215.175 623.604 215.696 623.744 216.294C623.891 216.886 624.014 217.524 624.113 218.21V218.43C624.014 219.074 623.876 219.684 623.7 220.258C623.53 220.826 623.308 221.33 623.032 221.77C622.757 222.209 622.411 222.555 621.995 222.807C621.585 223.053 621.093 223.176 620.519 223.176C619.921 223.176 619.382 223.056 618.901 222.815C618.427 222.575 618.02 222.238 617.68 221.805C617.346 221.371 617.088 220.861 616.906 220.275C616.73 219.689 616.643 219.051 616.643 218.359ZM619.604 218.175V218.359C619.604 218.717 619.637 219.048 619.701 219.353C619.771 219.657 619.877 219.927 620.018 220.161C620.158 220.39 620.331 220.568 620.536 220.697C620.747 220.826 620.993 220.891 621.274 220.891C621.702 220.891 622.048 220.8 622.312 220.618C622.575 220.437 622.766 220.179 622.883 219.845C623 219.511 623.05 219.118 623.032 218.667V217.973C623.044 217.586 623.018 217.246 622.953 216.953C622.889 216.654 622.786 216.405 622.646 216.206C622.511 216.007 622.329 215.857 622.101 215.758C621.878 215.652 621.608 215.6 621.292 215.6C621.017 215.6 620.773 215.664 620.562 215.793C620.352 215.922 620.176 216.104 620.035 216.338C619.895 216.566 619.786 216.839 619.71 217.155C619.64 217.466 619.604 217.806 619.604 218.175ZM626.987 218.342V218.157C626.987 217.46 627.087 216.818 627.286 216.232C627.485 215.641 627.778 215.128 628.165 214.694C628.552 214.261 629.029 213.924 629.598 213.684C630.166 213.438 630.822 213.314 631.566 213.314C632.316 213.314 632.976 213.438 633.544 213.684C634.118 213.924 634.599 214.261 634.985 214.694C635.372 215.128 635.665 215.641 635.864 216.232C636.063 216.818 636.163 217.46 636.163 218.157V218.342C636.163 219.033 636.063 219.675 635.864 220.267C635.665 220.853 635.372 221.365 634.985 221.805C634.599 222.238 634.121 222.575 633.553 222.815C632.984 223.056 632.328 223.176 631.584 223.176C630.84 223.176 630.181 223.056 629.606 222.815C629.032 222.575 628.552 222.238 628.165 221.805C627.778 221.365 627.485 220.853 627.286 220.267C627.087 219.675 626.987 219.033 626.987 218.342ZM629.949 218.157V218.342C629.949 218.699 629.976 219.033 630.028 219.344C630.081 219.654 630.169 219.927 630.292 220.161C630.415 220.39 630.582 220.568 630.793 220.697C631.004 220.826 631.268 220.891 631.584 220.891C631.895 220.891 632.152 220.826 632.357 220.697C632.568 220.568 632.735 220.39 632.858 220.161C632.981 219.927 633.069 219.654 633.122 219.344C633.175 219.033 633.201 218.699 633.201 218.342V218.157C633.201 217.812 633.175 217.486 633.122 217.182C633.069 216.871 632.981 216.599 632.858 216.364C632.735 216.124 632.568 215.937 632.357 215.802C632.146 215.667 631.883 215.6 631.566 215.6C631.256 215.6 630.995 215.667 630.784 215.802C630.579 215.937 630.415 216.124 630.292 216.364C630.169 216.599 630.081 216.871 630.028 217.182C629.976 217.486 629.949 217.812 629.949 218.157ZM641.779 223H638.94L638.958 220.627H641.779C642.365 220.627 642.86 220.486 643.265 220.205C643.675 219.924 643.985 219.505 644.196 218.948C644.413 218.386 644.521 217.694 644.521 216.874V216.32C644.521 215.705 644.46 215.166 644.337 214.703C644.22 214.234 644.044 213.845 643.81 213.534C643.575 213.218 643.282 212.98 642.931 212.822C642.585 212.664 642.187 212.585 641.735 212.585H638.888V210.203H641.735C642.603 210.203 643.396 210.353 644.117 210.651C644.844 210.944 645.471 211.366 645.998 211.917C646.531 212.462 646.941 213.109 647.229 213.859C647.521 214.604 647.668 215.43 647.668 216.338V216.874C647.668 217.776 647.521 218.603 647.229 219.353C646.941 220.103 646.534 220.75 646.007 221.295C645.479 221.84 644.855 222.262 644.135 222.561C643.42 222.854 642.635 223 641.779 223ZM640.707 210.203V223H637.622V210.203H640.707ZM654.497 217.56H651.201L651.184 215.538H653.855C654.336 215.538 654.72 215.485 655.007 215.38C655.294 215.269 655.502 215.107 655.631 214.896C655.766 214.686 655.833 214.422 655.833 214.105C655.833 213.742 655.766 213.449 655.631 213.227C655.496 213.004 655.282 212.843 654.989 212.743C654.702 212.638 654.33 212.585 653.873 212.585H652.361V223H649.276V210.203H653.873C654.664 210.203 655.37 210.276 655.991 210.423C656.612 210.563 657.14 210.78 657.573 211.073C658.013 211.366 658.347 211.735 658.575 212.181C658.804 212.62 658.918 213.139 658.918 213.736C658.918 214.258 658.807 214.747 658.584 215.204C658.361 215.661 657.989 216.033 657.468 216.32C656.952 216.602 656.246 216.748 655.35 216.76L654.497 217.56ZM654.374 223H650.454L651.509 220.627H654.374C654.796 220.627 655.133 220.562 655.385 220.434C655.643 220.299 655.827 220.123 655.938 219.906C656.056 219.684 656.114 219.438 656.114 219.168C656.114 218.84 656.059 218.556 655.947 218.315C655.842 218.075 655.672 217.891 655.438 217.762C655.203 217.627 654.89 217.56 654.497 217.56H651.904L651.922 215.538H655.024L655.745 216.347C656.601 216.312 657.277 216.432 657.775 216.707C658.279 216.982 658.64 217.346 658.856 217.797C659.073 218.248 659.182 218.72 659.182 219.212C659.182 220.05 659 220.75 658.637 221.312C658.279 221.875 657.743 222.297 657.028 222.578C656.313 222.859 655.429 223 654.374 223Z" fill="white"/>
<rect x="702" y="196" width="132" height="41" rx="3" fill="#424242"/>
<rect x="702" y="196" width="132" height="41" rx="3" stroke="#424242" stroke-width="4"/>
<path d="M730.559 218.983V210.203H733.635V218.983C733.635 219.839 733.438 220.58 733.046 221.207C732.659 221.834 732.132 222.32 731.464 222.666C730.802 223.006 730.058 223.176 729.231 223.176C728.376 223.176 727.614 223.032 726.946 222.745C726.284 222.458 725.763 222.016 725.382 221.418C725.007 220.82 724.819 220.059 724.819 219.133H727.913C727.913 219.566 727.963 219.906 728.062 220.152C728.162 220.393 728.309 220.562 728.502 220.662C728.701 220.756 728.944 220.803 729.231 220.803C729.513 220.803 729.75 220.732 729.943 220.592C730.143 220.445 730.295 220.237 730.4 219.968C730.506 219.692 730.559 219.364 730.559 218.983ZM740.394 220.609V216.689C740.394 216.42 740.355 216.188 740.279 215.995C740.203 215.802 740.083 215.652 739.919 215.547C739.755 215.436 739.535 215.38 739.26 215.38C739.037 215.38 738.847 215.418 738.688 215.494C738.53 215.57 738.41 215.685 738.328 215.837C738.246 215.989 738.205 216.183 738.205 216.417H735.243C735.243 215.978 735.34 215.57 735.533 215.195C735.732 214.814 736.014 214.483 736.377 214.202C736.746 213.921 737.186 213.704 737.695 213.552C738.211 213.394 738.785 213.314 739.418 213.314C740.174 213.314 740.848 213.44 741.439 213.692C742.037 213.944 742.509 214.322 742.854 214.826C743.2 215.324 743.373 215.951 743.373 216.707V220.601C743.373 221.222 743.408 221.693 743.479 222.016C743.549 222.332 743.648 222.61 743.777 222.851V223H740.807C740.666 222.707 740.561 222.35 740.49 221.928C740.426 221.5 740.394 221.061 740.394 220.609ZM740.754 217.19L740.771 218.772H739.462C739.187 218.772 738.952 218.811 738.759 218.887C738.571 218.963 738.419 219.068 738.302 219.203C738.19 219.332 738.108 219.479 738.056 219.643C738.009 219.807 737.985 219.979 737.985 220.161C737.985 220.337 738.026 220.495 738.108 220.636C738.196 220.771 738.313 220.876 738.46 220.952C738.606 221.028 738.771 221.066 738.952 221.066C739.28 221.066 739.559 221.005 739.787 220.882C740.021 220.753 740.2 220.598 740.323 220.416C740.446 220.234 740.508 220.064 740.508 219.906L741.158 221.119C741.041 221.354 740.906 221.591 740.754 221.831C740.607 222.071 740.423 222.294 740.2 222.499C739.983 222.698 739.717 222.862 739.4 222.991C739.084 223.114 738.7 223.176 738.249 223.176C737.663 223.176 737.124 223.056 736.632 222.815C736.146 222.575 735.756 222.241 735.463 221.813C735.17 221.38 735.023 220.882 735.023 220.319C735.023 219.827 735.111 219.388 735.287 219.001C735.469 218.614 735.741 218.286 736.104 218.017C736.468 217.747 736.931 217.542 737.493 217.401C738.056 217.261 738.718 217.19 739.479 217.19H740.754ZM748.304 220.97L750.176 213.49H753.296L750.185 223H748.339L748.304 220.97ZM747.196 213.49L749.042 220.97L749.024 223H747.17L744.067 213.49H747.196ZM758.974 220.609V216.689C758.974 216.42 758.936 216.188 758.859 215.995C758.783 215.802 758.663 215.652 758.499 215.547C758.335 215.436 758.115 215.38 757.84 215.38C757.617 215.38 757.427 215.418 757.269 215.494C757.11 215.57 756.99 215.685 756.908 215.837C756.826 215.989 756.785 216.183 756.785 216.417H753.823C753.823 215.978 753.92 215.57 754.113 215.195C754.312 214.814 754.594 214.483 754.957 214.202C755.326 213.921 755.766 213.704 756.275 213.552C756.791 213.394 757.365 213.314 757.998 213.314C758.754 213.314 759.428 213.44 760.02 213.692C760.617 213.944 761.089 214.322 761.435 214.826C761.78 215.324 761.953 215.951 761.953 216.707V220.601C761.953 221.222 761.988 221.693 762.059 222.016C762.129 222.332 762.229 222.61 762.357 222.851V223H759.387C759.246 222.707 759.141 222.35 759.07 221.928C759.006 221.5 758.974 221.061 758.974 220.609ZM759.334 217.19L759.352 218.772H758.042C757.767 218.772 757.532 218.811 757.339 218.887C757.151 218.963 756.999 219.068 756.882 219.203C756.771 219.332 756.688 219.479 756.636 219.643C756.589 219.807 756.565 219.979 756.565 220.161C756.565 220.337 756.606 220.495 756.688 220.636C756.776 220.771 756.894 220.876 757.04 220.952C757.187 221.028 757.351 221.066 757.532 221.066C757.86 221.066 758.139 221.005 758.367 220.882C758.602 220.753 758.78 220.598 758.903 220.416C759.026 220.234 759.088 220.064 759.088 219.906L759.738 221.119C759.621 221.354 759.486 221.591 759.334 221.831C759.188 222.071 759.003 222.294 758.78 222.499C758.563 222.698 758.297 222.862 757.98 222.991C757.664 223.114 757.28 223.176 756.829 223.176C756.243 223.176 755.704 223.056 755.212 222.815C754.726 222.575 754.336 222.241 754.043 221.813C753.75 221.38 753.604 220.882 753.604 220.319C753.604 219.827 753.691 219.388 753.867 219.001C754.049 218.614 754.321 218.286 754.685 218.017C755.048 217.747 755.511 217.542 756.073 217.401C756.636 217.261 757.298 217.19 758.06 217.19H759.334ZM770.329 219.599C770.329 219.399 770.3 219.221 770.241 219.062C770.183 218.898 770.074 218.746 769.916 218.605C769.758 218.465 769.529 218.324 769.23 218.184C768.938 218.037 768.551 217.885 768.07 217.727C767.508 217.539 766.966 217.328 766.444 217.094C765.923 216.854 765.457 216.575 765.047 216.259C764.637 215.937 764.312 215.562 764.071 215.134C763.831 214.7 763.711 214.196 763.711 213.622C763.711 213.071 763.834 212.576 764.08 212.137C764.326 211.691 764.669 211.313 765.108 211.003C765.554 210.687 766.075 210.446 766.673 210.282C767.271 210.112 767.924 210.027 768.633 210.027C769.57 210.027 770.396 210.191 771.111 210.52C771.832 210.842 772.395 211.302 772.799 211.899C773.209 212.491 773.414 213.191 773.414 214H770.347C770.347 213.678 770.279 213.394 770.145 213.147C770.016 212.901 769.819 212.708 769.556 212.567C769.292 212.427 768.961 212.356 768.562 212.356C768.176 212.356 767.851 212.415 767.587 212.532C767.323 212.649 767.124 212.808 766.989 213.007C766.854 213.2 766.787 213.414 766.787 213.648C766.787 213.842 766.84 214.018 766.945 214.176C767.057 214.328 767.212 214.472 767.411 214.606C767.616 214.741 767.862 214.87 768.149 214.993C768.442 215.116 768.771 215.236 769.134 215.354C769.813 215.57 770.417 215.813 770.944 216.083C771.478 216.347 771.926 216.648 772.289 216.988C772.658 217.322 772.937 217.703 773.124 218.131C773.317 218.559 773.414 219.042 773.414 219.581C773.414 220.155 773.303 220.665 773.08 221.11C772.857 221.556 772.538 221.934 772.122 222.244C771.706 222.549 771.208 222.78 770.628 222.938C770.048 223.097 769.4 223.176 768.686 223.176C768.029 223.176 767.382 223.094 766.743 222.93C766.11 222.76 765.536 222.502 765.021 222.156C764.505 221.805 764.092 221.356 763.781 220.812C763.477 220.261 763.324 219.607 763.324 218.852H766.418C766.418 219.227 766.468 219.543 766.567 219.801C766.667 220.059 766.813 220.267 767.007 220.425C767.2 220.577 767.438 220.688 767.719 220.759C768 220.823 768.322 220.855 768.686 220.855C769.078 220.855 769.395 220.8 769.635 220.688C769.875 220.571 770.051 220.419 770.162 220.231C770.273 220.038 770.329 219.827 770.329 219.599ZM778.881 220.891C779.156 220.891 779.391 220.841 779.584 220.741C779.783 220.636 779.933 220.489 780.032 220.302C780.138 220.108 780.188 219.877 780.182 219.607H782.968C782.974 220.322 782.798 220.949 782.44 221.488C782.089 222.021 781.608 222.438 780.999 222.736C780.396 223.029 779.713 223.176 778.951 223.176C778.207 223.176 777.557 223.056 777 222.815C776.443 222.569 775.978 222.229 775.603 221.796C775.233 221.356 774.955 220.844 774.768 220.258C774.586 219.672 774.495 219.036 774.495 218.351V218.148C774.495 217.463 774.586 216.827 774.768 216.241C774.955 215.649 775.233 215.137 775.603 214.703C775.978 214.264 776.44 213.924 776.991 213.684C777.548 213.438 778.195 213.314 778.934 213.314C779.725 213.314 780.422 213.464 781.025 213.763C781.635 214.062 782.112 214.495 782.458 215.063C782.804 215.632 782.974 216.32 782.968 217.129H780.182C780.188 216.842 780.144 216.584 780.05 216.355C779.956 216.127 779.81 215.945 779.61 215.811C779.417 215.67 779.168 215.6 778.863 215.6C778.559 215.6 778.312 215.667 778.125 215.802C777.938 215.937 777.794 216.124 777.694 216.364C777.601 216.599 777.536 216.868 777.501 217.173C777.472 217.478 777.457 217.803 777.457 218.148V218.351C777.457 218.702 777.472 219.033 777.501 219.344C777.536 219.648 777.604 219.918 777.703 220.152C777.803 220.381 777.946 220.562 778.134 220.697C778.321 220.826 778.57 220.891 778.881 220.891ZM787.222 215.846V223H784.26V213.49H787.028L787.222 215.846ZM790.034 213.42L789.981 216.171C789.864 216.159 789.706 216.145 789.507 216.127C789.308 216.109 789.141 216.101 789.006 216.101C788.66 216.101 788.361 216.142 788.109 216.224C787.863 216.3 787.658 216.417 787.494 216.575C787.336 216.728 787.219 216.921 787.143 217.155C787.072 217.39 787.04 217.662 787.046 217.973L786.51 217.621C786.51 216.982 786.571 216.402 786.694 215.881C786.823 215.354 787.005 214.899 787.239 214.519C787.474 214.132 787.758 213.836 788.092 213.631C788.426 213.42 788.801 213.314 789.217 213.314C789.363 213.314 789.507 213.323 789.647 213.341C789.794 213.358 789.923 213.385 790.034 213.42ZM794.183 213.49V223H791.212V213.49H794.183ZM791.036 211.038C791.036 210.616 791.188 210.271 791.493 210.001C791.798 209.731 792.193 209.597 792.68 209.597C793.166 209.597 793.562 209.731 793.866 210.001C794.171 210.271 794.323 210.616 794.323 211.038C794.323 211.46 794.171 211.806 793.866 212.075C793.562 212.345 793.166 212.479 792.68 212.479C792.193 212.479 791.798 212.345 791.493 212.075C791.188 211.806 791.036 211.46 791.036 211.038ZM798.999 215.318V226.656H796.037V213.49H798.797L798.999 215.318ZM804.835 218.131V218.315C804.835 219.007 804.756 219.648 804.598 220.24C804.439 220.832 804.205 221.348 803.895 221.787C803.584 222.227 803.197 222.569 802.734 222.815C802.277 223.056 801.747 223.176 801.144 223.176C800.575 223.176 800.086 223.05 799.676 222.798C799.266 222.546 798.923 222.197 798.647 221.752C798.372 221.307 798.149 220.797 797.979 220.223C797.81 219.648 797.675 219.042 797.575 218.403V218.166C797.675 217.48 797.81 216.845 797.979 216.259C798.149 215.667 798.372 215.151 798.647 214.712C798.923 214.272 799.263 213.93 799.667 213.684C800.077 213.438 800.566 213.314 801.135 213.314C801.738 213.314 802.269 213.429 802.726 213.657C803.188 213.886 803.575 214.214 803.886 214.642C804.202 215.063 804.439 215.57 804.598 216.162C804.756 216.754 804.835 217.41 804.835 218.131ZM801.873 218.315V218.131C801.873 217.762 801.847 217.425 801.794 217.12C801.741 216.81 801.656 216.54 801.539 216.312C801.428 216.083 801.278 215.907 801.091 215.784C800.903 215.661 800.672 215.6 800.396 215.6C800.08 215.6 799.813 215.649 799.597 215.749C799.386 215.843 799.216 215.989 799.087 216.188C798.964 216.382 798.876 216.625 798.823 216.918C798.776 217.205 798.756 217.542 798.762 217.929V218.649C798.75 219.095 798.794 219.487 798.894 219.827C798.993 220.161 799.166 220.422 799.412 220.609C799.658 220.797 799.992 220.891 800.414 220.891C800.695 220.891 800.93 220.826 801.117 220.697C801.305 220.562 801.454 220.378 801.565 220.144C801.677 219.903 801.756 219.628 801.803 219.317C801.85 219.007 801.873 218.673 801.873 218.315ZM811.163 213.49V215.547H805.433V213.49H811.163ZM806.637 211.126H809.599V219.897C809.599 220.149 809.628 220.346 809.687 220.486C809.745 220.621 809.845 220.718 809.985 220.776C810.132 220.829 810.325 220.855 810.565 220.855C810.735 220.855 810.876 220.853 810.987 220.847C811.099 220.835 811.204 220.82 811.304 220.803V222.921C811.052 223.003 810.788 223.064 810.513 223.105C810.237 223.152 809.944 223.176 809.634 223.176C809.001 223.176 808.459 223.076 808.008 222.877C807.562 222.678 807.223 222.364 806.988 221.937C806.754 221.509 806.637 220.952 806.637 220.267V211.126Z" fill="white"/>
<path d="M1066 0H1348C1356.28 0 1363 6.71573 1363 15V282C1363 290.284 1356.28 297 1348 297H1066V0Z" fill="white"/>
<path fill-rule="evenodd" clip-rule="evenodd" d="M1288.72 112.519C1287.66 112.314 1286.54 112.212 1285.37 112.212C1284.87 112.212 1284.38 112.231 1283.9 112.267C1284.3 114.065 1284.62 115.91 1284.87 117.808C1285.04 117.8 1285.21 117.797 1285.37 117.797C1287 117.797 1288.43 118.146 1289.67 118.844C1289.45 116.697 1289.14 114.588 1288.72 112.519ZM1291.81 120.529C1291.61 118.008 1291.3 115.525 1290.85 113.087C1291.65 113.363 1292.41 113.704 1293.14 114.111C1295.41 115.377 1297.2 117.164 1298.5 119.472C1299.8 121.78 1300.45 124.498 1300.45 127.626C1300.45 127.923 1300.43 128.259 1300.4 128.631C1300.4 129.003 1300.38 129.357 1300.34 129.692H1285.83C1285.79 128.722 1285.74 127.762 1285.68 126.822C1285.64 126.275 1285.17 125.86 1284.63 125.894C1284.08 125.928 1283.66 126.399 1283.7 126.945C1283.76 127.848 1283.8 128.766 1283.84 129.692H1279.55C1279.47 128.317 1279.36 126.954 1279.22 125.607C1279.2 125.395 1279.11 125.206 1278.98 125.057H1290.06C1290.06 125.168 1290.06 125.279 1290.07 125.391C1290.08 125.938 1290.53 126.371 1291.08 126.357C1291.63 126.344 1292.06 125.889 1292.05 125.342C1292.05 125.247 1292.04 125.152 1292.04 125.057H1293.85C1293.72 123.93 1293.38 122.907 1292.86 121.985C1292.55 121.453 1292.2 120.968 1291.81 120.529ZM1277.49 125.057H1276.88C1277.03 123.938 1277.35 122.933 1277.84 122.041C1278.58 120.701 1279.59 119.658 1280.85 118.914C1281.49 118.55 1282.17 118.275 1282.91 118.088C1282.66 116.174 1282.33 114.324 1281.93 112.53C1280.3 112.844 1278.79 113.389 1277.39 114.166C1277.82 116.073 1278.14 118.023 1278.34 120.001C1278.4 120.546 1278 121.032 1277.46 121.088C1276.91 121.144 1276.43 120.747 1276.37 120.203C1276.2 118.554 1275.95 116.929 1275.62 115.339C1274.13 116.487 1272.89 117.902 1271.92 119.584C1271.86 119.678 1271.81 119.772 1271.76 119.867C1271.8 120.117 1271.84 120.366 1271.87 120.612C1272.9 127.294 1273.07 133.814 1273.08 136.936C1274.3 138.48 1275.82 139.755 1277.64 140.761C1277.77 137.788 1277.78 134.833 1277.67 131.93C1277.33 131.232 1277.09 130.486 1276.94 129.692H1277.56C1277.49 128.385 1277.38 127.09 1277.25 125.81C1277.22 125.525 1277.31 125.257 1277.49 125.057ZM1279.72 134.581C1279.75 136.912 1279.7 139.267 1279.59 141.63C1280.84 142.092 1282.19 142.413 1283.62 142.591C1283.8 140.741 1283.9 138.698 1283.93 136.575C1283.05 136.389 1282.23 136.105 1281.47 135.723C1280.82 135.401 1280.24 135.021 1279.72 134.581ZM1285.91 136.824C1285.87 138.901 1285.77 140.909 1285.6 142.746C1285.87 142.755 1286.15 142.76 1286.44 142.76C1287.37 142.76 1288.27 142.707 1289.13 142.601C1291.57 140.12 1294.22 137.928 1296.88 136.102L1294.7 133.601C1293.66 134.718 1292.47 135.537 1291.13 136.058C1289.79 136.58 1288.28 136.84 1286.6 136.84C1286.37 136.84 1286.14 136.835 1285.91 136.824ZM1277.92 195.255C1278.49 191.714 1277.9 188.223 1277.18 184.744C1276.79 184.228 1276.35 183.76 1275.86 183.339C1273.52 181.255 1270.19 180.212 1265.87 180.212C1263.73 180.212 1261.65 180.467 1259.63 180.978C1261.36 182.545 1262.98 184.233 1264.47 186.03C1264.66 186.023 1264.84 186.02 1265.03 186.02C1267.53 186.02 1269.39 186.597 1270.62 187.751C1271.84 188.868 1272.46 190.451 1272.46 192.498V192.945H1269.27C1270.12 194.442 1270.9 195.988 1271.59 197.58H1272.46V199.744C1272.72 200.442 1272.96 201.147 1273.19 201.861C1274.08 204.628 1274.73 207.468 1275.2 210.369H1279.44V196.241C1279.24 196.372 1278.99 196.432 1278.74 196.391C1278.2 196.304 1277.83 195.795 1277.92 195.255ZM1273.19 210.369C1273.08 209.742 1272.97 209.119 1272.85 208.499V210.369H1273.19ZM1272.57 207.146C1272.24 205.697 1271.87 204.268 1271.43 202.861C1270.91 203.523 1270.26 204.072 1269.5 204.505C1268.82 204.901 1268.09 205.197 1267.32 205.392C1267.74 206.903 1268.1 208.447 1268.39 210.028C1268.97 209.829 1269.5 209.589 1270 209.308C1271.05 208.728 1271.9 208.007 1272.57 207.146ZM1266.47 210.518C1266.16 208.856 1265.79 207.242 1265.34 205.67C1265.2 205.675 1265.06 205.678 1264.92 205.678C1263.13 205.678 1261.74 205.306 1260.73 204.561C1259.73 203.816 1259.22 202.811 1259.22 201.545C1259.22 200.428 1259.63 199.498 1260.45 198.753C1260.86 198.367 1261.45 198.076 1262.24 197.881C1261.59 196.66 1260.88 195.46 1260.09 194.279C1259.9 193.998 1259.87 193.656 1259.99 193.363C1259.06 193.551 1258.23 193.803 1257.49 194.118C1256.61 194.496 1255.85 194.939 1255.2 195.448C1258.33 199.887 1260.47 205.102 1261.64 210.67C1262.22 210.73 1262.83 210.76 1263.47 210.76C1264.54 210.76 1265.55 210.679 1266.47 210.518ZM1259.53 210.304C1258.41 205.39 1256.49 200.821 1253.79 196.9C1253.7 197.03 1253.61 197.164 1253.53 197.301C1252.74 198.641 1252.35 200.149 1252.35 201.825C1252.35 202.356 1252.4 202.872 1252.48 203.371C1252.98 204.402 1253.41 205.479 1253.78 206.581C1254.7 207.864 1255.98 208.885 1257.6 209.643C1258.21 209.912 1258.85 210.132 1259.53 210.304ZM1261.68 193.102C1261.7 193.125 1261.72 193.148 1261.73 193.173C1262.71 194.624 1263.57 196.099 1264.32 197.602C1264.62 197.587 1264.93 197.58 1265.25 197.58H1269.42C1268.69 195.984 1267.87 194.437 1266.97 192.945H1264.75C1263.65 192.945 1262.62 192.997 1261.68 193.102ZM1262.09 186.291C1260.64 184.638 1259.07 183.087 1257.4 181.651C1255.93 182.186 1254.62 182.883 1253.45 183.742C1254.98 184.97 1256.42 186.317 1257.77 187.778C1258.47 187.397 1259.23 187.072 1260.06 186.802C1260.73 186.587 1261.41 186.417 1262.09 186.291ZM1256.09 188.89C1255.97 188.762 1255.85 188.635 1255.73 188.509L1255.98 188.98C1256.02 188.95 1256.06 188.92 1256.09 188.89ZM1250.68 181.692V180.212C1249.92 180.212 1249.2 180.249 1248.5 180.321C1249.24 180.755 1249.97 181.212 1250.68 181.692ZM1245.49 180.931C1247.29 181.85 1249.03 182.913 1250.68 184.113V186.858C1250.38 186.783 1250.1 186.746 1249.84 186.746C1249.58 186.709 1249.32 186.69 1249.06 186.69C1248.14 186.69 1247.28 186.786 1246.49 186.976C1244.67 185.792 1242.74 184.803 1240.74 184.008C1241.49 183.109 1242.4 182.365 1243.48 181.776C1244.1 181.44 1244.77 181.159 1245.49 180.931ZM1229.36 174.742V171.277H1213.12C1213.13 171.302 1213.14 171.329 1213.15 171.356C1213.29 171.883 1212.98 172.429 1212.45 172.575C1209.55 173.377 1206.07 175.057 1202.57 177.42H1209.14V179.252C1214.18 176.643 1219.76 175.067 1225.46 174.79C1226.76 174.711 1228.06 174.695 1229.36 174.742ZM1209.14 181.5V186.919C1210.87 185.823 1212.72 184.879 1214.64 184.106C1215.15 183.902 1215.72 184.149 1215.93 184.657C1216.13 185.165 1215.89 185.742 1215.38 185.946C1213.17 186.834 1211.08 187.961 1209.14 189.293V195.339C1211.28 193.426 1213.73 191.839 1216.4 190.66V178.404C1213.88 179.186 1211.45 180.228 1209.14 181.5ZM1220.28 177.42C1222.02 177.076 1223.79 176.856 1225.57 176.77L1225.58 176.77C1226.84 176.692 1228.1 176.678 1229.36 176.726V177.42H1220.28ZM1216.4 192.843C1213.67 194.162 1211.21 195.945 1209.14 198.088V205.636C1210.81 202.593 1213.37 199.984 1216.4 198.084V192.843ZM1216.4 200.468C1212.95 202.942 1210.35 206.448 1209.41 210.369H1214.14C1214.65 208.866 1215.41 207.542 1216.4 206.367V200.468ZM1216.4 210.045C1216.35 210.152 1216.3 210.26 1216.26 210.369H1216.4V210.045ZM1233.42 197.701C1235.69 198.411 1238.18 199.583 1240.41 201.442V209.228C1239.45 207.388 1238.21 205.734 1236.55 204.395C1235.6 203.622 1234.54 202.987 1233.42 202.496V197.701ZM1233.42 204.697V210.369H1238.78C1237.93 208.669 1236.8 207.149 1235.3 205.936C1234.72 205.462 1234.09 205.049 1233.42 204.697ZM1240.41 198.935C1238.11 197.309 1235.65 196.272 1233.42 195.638V190.928C1235.97 191.506 1238.37 192.457 1240.56 193.72C1240.46 194.399 1240.41 195.127 1240.41 195.905V198.935ZM1241.05 191.724C1238.7 190.431 1236.14 189.468 1233.42 188.898V184.022C1237.22 184.66 1240.89 185.955 1244.21 187.897C1243.68 188.214 1243.19 188.593 1242.75 189.036C1242.01 189.76 1241.44 190.656 1241.05 191.724ZM1233.42 182.013C1235.69 182.372 1237.92 182.952 1240.07 183.751V180.547H1233.42V182.013ZM1199.17 177.42C1202.86 174.623 1206.67 172.504 1210.02 171.277H1196.18V177.42H1199.17ZM1298.19 137.609C1296.43 138.804 1294.67 140.171 1292.97 141.685C1293.1 141.635 1293.23 141.584 1293.36 141.531C1295.41 140.675 1297.1 139.465 1298.44 137.901L1298.19 137.609ZM1271.03 133.383C1270.94 130.75 1270.74 127.394 1270.31 123.851C1270.08 124.989 1269.96 126.192 1269.96 127.458C1269.96 129.601 1270.32 131.576 1271.03 133.383ZM1198.86 103.277H1196.18V109.42H1196.99C1197.47 107.334 1198.1 105.279 1198.86 103.277ZM1199.03 109.42C1199.53 107.334 1200.19 105.278 1200.99 103.277H1206.34C1206.03 103.997 1205.74 104.728 1205.47 105.47C1205.28 105.985 1205.55 106.553 1206.06 106.74C1206.58 106.926 1207.14 106.66 1207.33 106.146C1207.68 105.17 1208.08 104.213 1208.51 103.277H1213.54C1211.64 106.666 1210.33 110.404 1209.76 114.35C1209.09 119.058 1209.8 123.694 1210.51 128.336C1210.91 130.922 1211.31 133.511 1211.47 136.114C1211.59 138.173 1211.58 140.274 1211.32 142.369H1209.14V109.42H1199.03ZM1213.32 142.369H1216.4V124.082C1216.16 122.645 1216.03 121.169 1216.03 119.666C1216.03 118.158 1216.16 116.68 1216.4 115.24V109.42H1218.07C1218.99 107.211 1220.19 105.148 1221.63 103.277H1215.83C1213.74 106.712 1212.31 110.557 1211.73 114.632C1211.07 119.22 1211.78 123.766 1212.49 128.31L1212.49 128.31L1212.49 128.31C1212.89 130.87 1213.29 133.428 1213.45 135.994C1213.57 138.062 1213.56 140.206 1213.32 142.369ZM1224.2 103.277C1222.59 105.113 1221.25 107.18 1220.23 109.42H1225.33C1226.39 107.618 1227.76 105.979 1229.36 104.561V103.277H1224.2ZM1229.36 107.334C1228.74 107.993 1228.18 108.69 1227.68 109.42H1229.36V107.334ZM1234.13 103.565C1236.28 102.347 1238.66 101.507 1241.11 101.165V105.736C1240.97 105.761 1240.82 105.789 1240.67 105.819C1240.13 105.928 1239.79 106.452 1239.9 106.988C1240.01 107.525 1240.53 107.871 1241.07 107.761L1241.11 107.752V112.608C1237.34 113.953 1235.02 118.232 1236.08 122.261C1237.83 129.164 1238.4 135.865 1237.79 142.369H1234.13V111.56C1234.89 110.732 1235.78 109.986 1236.8 109.302C1237.26 108.998 1237.38 108.382 1237.07 107.927C1236.77 107.472 1236.15 107.349 1235.7 107.654C1235.15 108.024 1234.62 108.413 1234.13 108.824V103.565ZM1239.78 142.369H1241.11V127.291C1241.11 125.28 1241.45 123.623 1242.12 122.32C1242.3 121.977 1242.5 121.655 1242.72 121.355C1242.62 120.928 1242.53 120.5 1242.43 120.07C1242.3 119.537 1242.63 119.003 1243.16 118.878C1243.7 118.753 1244.23 119.083 1244.36 119.616L1244.38 119.727C1244.6 119.574 1244.84 119.433 1245.08 119.305C1246.27 118.673 1247.63 118.339 1249.15 118.303C1248.39 115.885 1246.19 114.161 1243.62 114.161C1243.55 114.161 1243.49 114.162 1243.43 114.164C1242.55 114.688 1241.78 115.31 1241.11 116.031V114.757C1238.67 115.997 1237.26 118.975 1238 121.76L1238 121.77C1239.78 128.812 1240.38 135.681 1239.78 142.369ZM1246.62 112.792C1248.95 113.787 1250.7 115.903 1251.25 118.462C1252.63 118.73 1253.76 119.327 1254.63 120.254C1255.89 121.557 1256.53 123.53 1256.53 126.174V142.369H1257.76C1258.12 138.089 1258.14 133.796 1257.75 129.451C1257.72 129.163 1257.7 128.87 1257.67 128.573L1257.67 128.569C1257.2 123.239 1256.63 116.769 1253.31 112.361C1252.58 112.262 1251.83 112.212 1251.05 112.212C1249.47 112.212 1247.99 112.405 1246.62 112.792ZM1256.08 113.036C1258.69 117.737 1259.23 123.773 1259.69 128.918L1259.73 129.273C1260.12 133.689 1260.1 138.043 1259.75 142.369H1263.51V125.28C1263.51 122.264 1262.97 119.807 1261.89 117.908C1260.81 115.972 1259.32 114.539 1257.42 113.608C1256.99 113.392 1256.54 113.201 1256.08 113.036ZM1234.95 100.931C1234.67 101.056 1234.4 101.186 1234.13 101.321V100.931H1234.95ZM1293.76 208.805C1293.95 208.907 1294.14 209.005 1294.34 209.099C1295.31 207.19 1296.09 205.22 1296.66 203.189C1295.65 202.491 1294.83 201.59 1294.2 200.484C1293.72 199.605 1293.38 198.624 1293.2 197.543C1292.92 200.576 1292.19 203.658 1290.73 206.634C1291.63 207.461 1292.64 208.185 1293.76 208.805ZM1300.93 210.727C1299.25 210.633 1297.66 210.339 1296.19 209.845C1297.12 207.992 1297.87 206.088 1298.45 204.135C1299.56 204.568 1300.77 204.784 1302.08 204.784C1302.44 204.784 1302.8 204.765 1303.14 204.725C1302.57 206.84 1301.83 208.838 1300.93 210.727ZM1302.08 186.132C1301.12 186.132 1300.21 186.249 1299.35 186.484C1299.25 185.873 1299.14 185.257 1299.02 184.639C1298.92 184.101 1298.39 183.752 1297.86 183.858C1297.32 183.963 1296.97 184.485 1297.08 185.022C1297.22 185.767 1297.35 186.506 1297.46 187.239L1297.44 187.249C1296.07 187.993 1294.99 189.073 1294.2 190.488C1293.8 191.195 1293.5 191.977 1293.31 192.832C1293.3 192.5 1293.28 192.171 1293.26 191.843C1293.1 189.277 1292.7 186.719 1292.3 184.159L1292.3 184.159C1292.25 183.826 1292.2 183.494 1292.15 183.161C1292.66 182.802 1293.19 182.471 1293.76 182.167C1294.72 181.654 1295.74 181.242 1296.81 180.931C1296.99 181.017 1297.2 181.049 1297.41 181.011C1297.67 180.965 1297.89 180.822 1298.03 180.625C1299.33 180.35 1300.7 180.212 1302.13 180.212C1302.44 180.212 1302.75 180.219 1303.05 180.232C1303.22 181.678 1303.43 183.121 1303.64 184.564L1303.64 184.567C1303.73 185.148 1303.81 185.728 1303.9 186.309C1303.31 186.191 1302.7 186.132 1302.08 186.132ZM1288.06 187.584C1288.72 186.48 1289.5 185.491 1290.39 184.618C1290.77 187.06 1291.13 189.505 1291.28 191.963C1291.54 196.296 1291.18 200.818 1289.27 205.075C1288.83 204.529 1288.43 203.948 1288.06 203.332C1287.26 201.982 1286.69 200.524 1286.35 198.957C1286.8 196.869 1287.01 194.721 1286.88 192.553C1286.84 191.893 1286.78 191.236 1286.71 190.58C1287.04 189.521 1287.49 188.522 1288.06 187.584ZM1305.62 184.692C1305.41 183.271 1305.2 181.85 1305.03 180.428C1306.77 180.698 1308.35 181.222 1309.79 181.999C1309.84 182.029 1309.9 182.059 1309.96 182.09C1309.99 182.105 1310.01 182.119 1310.04 182.134C1310.13 182.554 1310.22 182.973 1310.31 183.394C1310.73 185.329 1311.08 187.261 1311.32 189.206L1309.51 190.264C1308.61 188.85 1307.51 187.807 1306.21 187.137C1306.13 187.092 1306.04 187.049 1305.96 187.007C1305.85 186.235 1305.73 185.463 1305.62 184.692ZM1313.18 188.123C1312.98 186.698 1312.73 185.279 1312.43 183.86C1313.41 184.779 1314.22 185.871 1314.87 187.137L1313.18 188.123ZM1309.51 200.652L1311 201.525C1310.51 204.134 1309.75 206.637 1308.7 209.07C1308.63 209.222 1308.61 209.381 1308.62 209.535C1306.96 210.24 1305.13 210.641 1303.11 210.737C1304.03 208.671 1304.77 206.488 1305.33 204.185C1305.63 204.067 1305.92 203.932 1306.21 203.779C1307.51 203.109 1308.61 202.067 1309.51 200.652ZM1312.82 202.582C1312.43 204.446 1311.91 206.261 1311.25 208.04C1312.77 206.917 1313.98 205.497 1314.87 203.779L1312.82 202.582ZM1344.15 196.278C1344.38 192.276 1344.39 188.223 1344.17 184.341C1343.29 183.473 1342.29 182.73 1341.18 182.111C1340.54 181.749 1339.86 181.439 1339.16 181.18C1339.29 182.404 1339.4 183.608 1339.51 184.767L1339.54 185.122C1339.64 186.228 1339.71 187.33 1339.76 188.428C1340.2 188.893 1340.58 189.412 1340.91 189.985C1341.43 190.907 1341.76 191.93 1341.9 193.057H1339.82C1339.8 194.606 1339.72 196.151 1339.61 197.692H1344.06C1344.09 197.222 1344.12 196.751 1344.15 196.278ZM1333.42 180.212C1334.71 180.212 1335.94 180.337 1337.11 180.588C1337.26 181.899 1337.38 183.189 1337.49 184.418L1337.49 184.422C1337.51 184.719 1337.54 185.011 1337.56 185.3C1337.61 185.81 1337.65 186.32 1337.69 186.829C1336.45 186.141 1335.03 185.797 1333.42 185.797C1333.15 185.797 1332.88 185.806 1332.62 185.825C1332.46 184.008 1332.25 182.152 1331.99 180.264C1332.46 180.229 1332.94 180.212 1333.42 180.212ZM1332.96 193.057H1337.84C1337.81 194.605 1337.74 196.149 1337.62 197.692H1332.8C1332.91 196.193 1332.97 194.646 1332.96 193.057ZM1334.65 204.84C1335.4 204.84 1336.12 204.787 1336.81 204.682C1336.5 206.695 1336.13 208.709 1335.7 210.729C1335.3 210.75 1334.9 210.76 1334.48 210.76C1333.24 210.76 1332.05 210.668 1330.92 210.484C1331.36 208.574 1331.72 206.605 1332 204.579C1332.83 204.753 1333.71 204.84 1334.65 204.84ZM1341.41 209.531C1340.29 209.987 1339.08 210.316 1337.77 210.519C1338.21 208.4 1338.58 206.283 1338.89 204.163C1338.99 204.13 1339.08 204.095 1339.17 204.058C1340.51 203.537 1341.71 202.718 1342.75 201.601L1343.62 202.598C1343.37 204.778 1343.07 206.896 1342.71 208.912C1342.3 209.136 1341.86 209.342 1341.41 209.531ZM1344.97 207.395C1345.12 206.483 1345.25 205.555 1345.37 204.614L1346.49 205.901C1346.03 206.442 1345.52 206.94 1344.97 207.395ZM1330.08 203.983C1329.8 206.078 1329.44 208.105 1328.98 210.063C1327.85 209.749 1326.78 209.33 1325.77 208.805C1325.41 208.611 1325.07 208.407 1324.74 208.192C1325.35 205.739 1325.8 203.209 1326.09 200.602C1326.9 201.949 1328.05 202.99 1329.51 203.723C1329.7 203.816 1329.89 203.902 1330.08 203.983ZM1323.66 183.339C1324.92 191.897 1324.69 199.762 1323.01 206.903C1321.83 205.88 1320.83 204.69 1320.02 203.332C1319.7 202.786 1319.42 202.221 1319.18 201.639C1319.85 197.248 1320 192.777 1319.62 188.228C1319.73 188.01 1319.84 187.795 1319.96 187.584C1320.94 185.902 1322.17 184.487 1323.66 183.339ZM1325.49 182.139C1326.89 181.368 1328.4 180.828 1330.03 180.52C1330.29 182.446 1330.5 184.331 1330.66 186.169C1330.04 186.351 1329.45 186.599 1328.9 186.914C1327.85 187.528 1326.99 188.345 1326.3 189.366C1326.14 187.008 1325.87 184.599 1325.49 182.139ZM1326.44 193.057H1330.98C1330.98 194.649 1330.93 196.193 1330.81 197.683L1330.81 197.692H1326.33C1326.42 196.171 1326.46 194.626 1326.44 193.057ZM1346.13 196.39C1346.1 196.825 1346.08 197.259 1346.05 197.692H1348.39C1348.43 197.357 1348.44 197.003 1348.44 196.631C1348.48 196.259 1348.5 195.923 1348.5 195.626C1348.5 192.498 1347.85 189.78 1346.55 187.472C1346.46 187.312 1346.36 187.155 1346.27 187C1346.36 190.107 1346.3 193.272 1346.13 196.39Z" fill="#141521"/>
<g filter="url(#filter0_b_414_115)">
<path fill-rule="evenodd" clip-rule="evenodd" d="M1181.01 144.609C1168.55 127.018 1170.82 103.463 1185.31 88.5503C1187.18 86.6491 1189.23 84.8836 1191.47 83.2943C1192.62 82.4757 1193.8 81.7191 1195.01 81.0252C1197.45 79.6369 1199.98 78.4902 1202.55 77.6338C1206.9 76.0956 1211.37 75.3078 1215.86 75.228C1229.97 74.9038 1243.99 81.3785 1252.75 93.7463C1261.54 106.145 1262.97 121.518 1258.01 134.727C1256.42 138.935 1254.2 142.894 1251.33 146.492C1249.64 148.626 1247.73 150.608 1245.61 152.446C1244.55 153.362 1243.45 154.218 1242.3 155.033C1240.05 156.625 1237.71 157.996 1235.29 159.109C1216.43 167.835 1193.45 162.168 1181.01 144.609Z" fill="#141521" fill-opacity="0.01"/>
</g>
<path fill-rule="evenodd" clip-rule="evenodd" d="M1182.42 143.637C1169.74 125.744 1173.97 100.971 1191.86 88.2877C1209.72 75.6214 1234.49 79.8452 1247.16 97.7406C1259.81 115.613 1255.59 140.386 1237.72 153.053C1219.84 165.733 1195.07 161.509 1182.42 143.637M1244.21 162.252C1267.17 145.976 1272.59 114.179 1256.33 91.2128C1240.06 68.2494 1208.27 62.8083 1185.31 79.082C1164.42 93.8965 1158.04 121.612 1169.33 143.798C1170.44 145.966 1171.73 148.091 1173.19 150.158C1174.65 152.223 1176.23 154.146 1177.91 155.905C1195.09 173.919 1223.32 177.063 1244.21 162.252" fill="#141521"/>
<path fill-rule="evenodd" clip-rule="evenodd" d="M1086.11 214.749L1085.43 213.785C1080.91 207.406 1082.43 198.481 1088.81 193.958L1147.68 152.216L1164.8 176.387L1105.92 218.129C1099.54 222.652 1090.63 221.131 1086.11 214.749" fill="#141521"/>
<path fill-rule="evenodd" clip-rule="evenodd" d="M1179.29 157.253L1161.89 169.588L1153.14 157.232L1170.54 144.9C1171.67 147.111 1172.98 149.278 1174.47 151.39C1175.97 153.496 1177.57 155.459 1179.29 157.253" fill="#141521"/>
<path fill-rule="evenodd" clip-rule="evenodd" d="M1106.71 217.495L1089.7 193.479L1094.03 190.415L1111.04 214.429L1106.71 217.495Z" fill="#141521"/>
<path fill-rule="evenodd" clip-rule="evenodd" d="M1163.92 177.406L1146.45 152.731L1150.11 150.132L1167.58 174.808L1163.92 177.406Z" fill="#0BC1A0"/>
<defs>
<filter id="filter0_b_414_115" x="1162.38" y="64.6929" width="108.983" height="108.98" filterUnits="userSpaceOnUse" color-interpolation-filters="sRGB">
<feFlood flood-opacity="0" result="BackgroundImageFix"/>
<feGaussianBlur in="BackgroundImageFix" stdDeviation="5.26176"/>
<feComposite in2="SourceAlpha" operator="in" result="effect1_backgroundBlur_414_115"/>
<feBlend mode="normal" in="SourceGraphic" in2="effect1_backgroundBlur_414_115" result="shape"/>
</filter>
</defs>
</svg>
